<svg xmlns="http://www.w3.org/2000/svg" version="1.1" xmlns:xlink="http://www.w3.org/1999/xlink" xmlns:svgjs="http://svgjs.dev/svgjs" width="1000" height="1000" viewBox="0 0 1000 1000"><rect width="1000" height="1000" fill="#000000"></rect><g transform="matrix(0.7,0,0,0.7,150.0000000000001,106.25)"><svg viewBox="0 0 320 360" data-background-color="#b19dd0" preserveAspectRatio="xMidYMid meet" height="1125" width="1000" xmlns="http://www.w3.org/2000/svg" xmlns:xlink="http://www.w3.org/1999/xlink"><g id="tight-bounds" transform="matrix(1,0,0,1,0,0)"><svg viewBox="0 0 320 360" height="360" width="320"><g><svg></svg></g><g><svg viewBox="0 0 320 360" height="360" width="320"><g><path xmlns="http://www.w3.org/2000/svg" d="M20.961 227.22l3.726 4.658-1.863-6.056c-0.466-2.795-3.726 0.466-1.863 1.398M25.153 224.425c1.397 2.329 2.795 4.658 2.795 6.987 0 3.261 2.795 4.658 5.123 5.589-3.261-3.726-5.124-13.974-7.918-12.576M204.017 26.929c7.918 0 15.371-0.932 23.756 0.931 20.495 5.124 37.729 15.371 49.374 29.811l32.606 52.169c1.397 13.042 4.192 27.482 3.726 43.319 3.261 0 2.795-4.658 6.521-5.59-3.726 9.316-5.59 20.961-6.521 34.469-2.329-7.453 0-18.632 0.466-24.687-3.261 5.124-5.124 1.397-5.124-0.932 0.466-3.726-1.397-3.261-2.795-4.658-5.124-4.658-8.384-9.782-12.11-17.7 2.329-6.055 2.795-14.905-4.658-19.563-2.329-1.397-5.124-3.726-6.521-7.453-1.863-5.124-5.124-11.179-4.193-19.097 0.466-2.329-6.987 5.124-11.179 1.863-18.166-12.576-36.332-27.016-58.224-39.127-11.645 0-20.029-4.192-24.221-9.316-3.726-4.658-0.932-10.713 4.658-11.179 3.261 0 6.987-0.932 9.782 0.932 0.466-1.863 2.329-4.192 4.657-4.192M157.904 16.215l0.932 0.466c4.658 0.932 6.987 7.453 12.11 5.124 0 3.261 0.466 6.521-0.466 8.85-1.397 3.726-5.59 3.726-8.85 3.726-31.208-1.863-49.374 11.179-68.471 22.358-5.124 3.261-10.713 5.59-14.906 9.782-20.029 18.632-41.921 35.866-47.045 70.335l-4.192 38.195c-0.466 4.192-5.124 8.384-4.192 13.508l3.26 22.824c-3.261-3.261-5.124 0.932-4.192 2.795 0.466 1.397 2.329 6.055 5.124 1.863 3.726 6.987 7.453 20.495 12.576 26.55 15.837 18.632 36.332 35.4 53.101 52.169 4.192-0.932 7.453-0.932 8.384-3.727 1.397 2.795-1.397 5.59-3.726 6.056 7.453 4.658 15.837 8.85 27.016 9.781 14.44 0.932 27.948 3.261 40.524 6.522 6.521-1.863 13.042-2.795 20.029-3.261 2.329 0 3.726-3.726 6.521-4.658l0.466-4.658c2.795 4.192 2.329-1.397 0.466-4.192 3.261 2.795 4.192 5.124 5.589 6.987 0-1.397 3.726-6.521 3.727-0.466l0.931-6.055c1.397-0.932 1.863 5.124 3.261 0.931 1.397-4.192 4.192-0.932 6.987-2.329-0.932 1.863-0.466 5.59 2.794 3.261l3.727-3.261c2.329 5.59 6.055 3.261 7.918 2.329 20.495-13.042 40.99-28.413 60.553-43.784l-0.466 6.055 2.329-7.453c2.329 2.329 4.192 0.466 5.124-0.931 2.795-4.658 6.521-9.316 12.577-13.508-7.453 20.029-16.303 35.866-27.482 48.908l-4.658 5.59c0 3.261-0.932 7.453-4.658 7.918-1.863 0.466-5.59-0.932-8.384 1.863-1.397 1.863 3.261 5.59-0.466 2.795-3.261-2.329-6.521 0-10.248 0.932-2.795 0.932 1.863 3.726 2.795 5.589 0.932 1.863 1.863 3.726 1.398 6.056l-5.124-5.59c-6.055 3.261-9.782 9.316-14.906 13.974-2.329 1.863-1.397 5.124-1.397 7.918-3.261 0-6.987-0.932-8.85 0.932-1.397 1.863-0.932 4.658-0.932 7.453-4.658-0.466-5.124-7.453-9.315-6.056-4.192 0.932-8.85 1.397-12.577 3.727 2.795 5.59-4.658 2.329-3.726 3.26-6.987-4.192-13.042-7.453-20.495-4.658-15.837-5.124-35.4-2.795-49.84-0.931 0-2.329 0.466-4.658-0.466-5.124-0.932 2.329-3.726 1.397-3.26 1.397-8.85-6.055-17.7-9.782-27.016-14.905-8.384 0.932-16.303-3.261-18.632-5.59-6.521-6.055-13.974-2.795-20.029-4.192-13.042-3.261-17.7-16.769-19.098-26.084-0.932-4.658-4.658-6.521-6.055-6.056-6.055-19.563-15.371-37.263-22.824-55.429-1.863-4.658-1.397-9.316-1.397-14.44 2.329 0.932 4.658 0.466 4.192-2.794-2.329-15.371-7.918-27.016-13.974-38.195 3.261-15.837 3.726-34.469 11.179-48.443 6.521-12.576 18.632-19.098 27.016-29.811 2.795-3.726 2.795-8.85 5.59-12.11 9.316-9.316 18.632-19.098 28.879-27.482 4.658-3.726 10.247 0 17.234-1.397 2.329-8.384 11.645-15.837 20.495-13.508 3.726 0.932 11.179-8.85 13.508-9.782 3.726-1.397 1.863 3.726 1.863 6.987 8.85-6.987 20.961-10.713 32.14-14.906" fill="#7a26c1" fill-rule="nonzero" stroke="none" stroke-width="1" stroke-linecap="butt" stroke-linejoin="miter" stroke-miterlimit="10" stroke-dasharray="" stroke-dashoffset="0" font-family="none" font-weight="none" font-size="none" text-anchor="none" style="mix-blend-mode: normal" data-fill-palette-color="tertiary"></path></g><g transform="matrix(1,0,0,1,64,137.241455505812)"><svg viewBox="0 0 192 85.51708898837596" height="85.51708898837596" width="192"><g><svg viewBox="0 0 192 85.51708898837596" height="85.51708898837596" width="192"><g><svg viewBox="0 0 192 85.51708898837596" height="85.51708898837596" width="192"><g transform="matrix(1,0,0,1,0,63.64528560079708)"><svg viewBox="0 0 192 21.87180338757888" height="21.87180338757888" width="192"><g><svg viewBox="0 0 192 21.87180338757888" height="21.87180338757888" width="192"><g><svg viewBox="0 0 192 21.87180338757888" height="21.87180338757888" width="192"><g transform="matrix(1,0,0,1,0,0)"><svg width="192" viewBox="2 -52.880001068115234 588.0499877929688 66.98999786376953" height="21.87180338757888" data-palette-color="#7a26c1"><path d="M51.07-27.29L51.07-27.29Q51.07-24.51 50.71-21.9 50.34-19.29 49.66-16.6L49.66-16.6Q49.02-16.11 48.88-15.38 48.73-14.65 48.39-14.01L48.39-14.01Q48.1-13.48 47.61-12.87 47.12-12.26 46.53-11.6 45.95-10.94 45.36-10.25 44.78-9.57 44.38-8.89L44.38-8.89Q42.92-8.4 42.29-6.79L42.29-6.79Q41.5-6.49 40.67-6.13 39.84-5.76 39.5-4.88L39.5-4.88Q37.7-3.96 36.11-2.76 34.52-1.56 32.67-0.68L32.67-0.68Q32.42-0.44 32.1-0.32 31.79-0.2 31.47-0.05 31.15 0.1 30.88 0.32 30.62 0.54 30.57 0.88L30.57 0.88Q30.37 0.88 30.3 0.81 30.22 0.73 29.98 0.68L29.98 0.68Q29.44 0.98 29.49 1.61L29.49 1.61Q29.3 1.51 28.96 1.51L28.96 1.51Q28.37 1.51 27.81 1.88 27.25 2.25 26.86 2.64L26.86 2.64Q26.27 2.93 25.51 3.22 24.76 3.52 24.41 4.2L24.41 4.2Q24.22 4 23.83 4L23.83 4Q23.39 4 22.9 4.27 22.41 4.54 22.17 4.88L22.17 4.88Q21.48 4.88 20.87 5.1 20.26 5.32 19.63 5.54 18.99 5.76 18.38 5.96 17.77 6.15 17.09 6.15L17.09 6.15Q16.7 6.15 16.5 5.96 16.31 5.76 16.02 5.62L16.02 5.62Q15.77 5.81 15.16 6.05 14.55 6.3 14.26 6.3L14.26 6.3Q13.72 6.3 13.21 6.15 12.7 6.01 12.16 5.81L12.16 5.81 11.13 5.47Q10.64 5.32 10.06 5.27L10.06 5.27Q9.62 4.88 9.01 4.47 8.4 4.05 7.81 4.2L7.81 4.2Q7.57 3.47 7.08 2.93 6.59 2.39 5.96 1.95L5.96 1.95Q5.81 1.86 5.64 1.78 5.47 1.71 5.37 1.61L5.37 1.61Q5.13 1.46 4.93 1.03 4.74 0.59 4.49 0.59L4.49 0.59Q4.44 0.59 4.37 0.63 4.3 0.68 4.25 0.68L4.25 0.68Q4.15 0.24 3.96-0.17 3.76-0.59 3.27-0.68L3.27-0.68Q2.88-1.95 2.73-3.22 2.59-4.49 2.34-5.76L2.34-5.76Q2.25-6.15 2.12-6.71 2-7.28 2-7.71L2-7.71Q2-8.45 2.22-9.47 2.44-10.5 2.59-11.28L2.59-11.28Q3.17-14.11 4.15-16.77 5.13-19.43 6.27-22.07 7.42-24.71 8.64-27.29 9.86-29.88 10.94-32.57L10.94-32.57Q11.13-32.57 11.18-32.67L11.18-32.67 11.33-32.91Q11.43-33.06 11.5-33.15 11.57-33.25 11.82-33.25L11.82-33.25 11.82-33.4Q11.77-33.69 11.94-33.89 12.11-34.08 12.01-34.52L12.01-34.52Q12.79-35.4 13.33-36.5 13.87-37.6 14.43-38.67 14.99-39.75 15.63-40.77 16.26-41.8 17.24-42.53L17.24-42.53 17.24-42.87Q17.19-43.12 17.26-43.38 17.33-43.65 17.58-43.75L17.58-43.75Q18.46-44.63 19.04-45.51 19.63-46.39 20.24-47.24 20.85-48.1 21.61-48.85 22.36-49.61 23.54-50.24L23.54-50.24Q24.07-50.49 24.32-50.98 24.56-51.46 24.95-51.66L24.95-51.66Q25.15-51.76 25.37-51.78 25.59-51.81 25.78-51.9L25.78-51.9Q26.61-52.15 27.44-52.51 28.27-52.88 29.2-52.88L29.2-52.88Q30.37-52.88 30.98-52.22 31.59-51.56 31.96-50.63 32.32-49.71 32.57-48.68 32.81-47.66 33.35-46.92L33.35-46.92Q34.81-46.83 36.33-46.61 37.84-46.39 38.96-45.36L38.96-45.36Q39.06-45.31 39.21-45.31L39.21-45.31Q39.45-45.31 39.45-45.51 39.45-45.7 39.7-45.7L39.7-45.7 39.84-45.7Q41.31-44.82 42.65-43.77 43.99-42.72 45.31-41.6L45.31-41.6Q45.56-41.41 45.83-41.24 46.09-41.06 46.29-40.82L46.29-40.82Q46.53-40.53 46.75-40.14 46.97-39.75 47.17-39.45L47.17-39.45Q49.61-35.21 50.44-30.32L50.44-30.32Q50.54-29.79 50.61-29.3 50.68-28.81 50.68-28.37L50.68-28.37Q50.68-27.93 50.88-27.81 51.07-27.69 51.07-27.29ZM47.31-24.8L47.31-24.8Q47.31-26.76 46.83-28.56L46.83-28.56Q47.07-28.66 47.14-28.88 47.22-29.1 47.22-29.35L47.22-29.35 47.22-29.59 46.63-30.66Q46.58-31.35 46.36-31.93 46.14-32.52 45.85-33.11 45.56-33.69 45.29-34.28 45.02-34.86 44.92-35.55L44.92-35.55Q44.14-36.13 43.53-36.89 42.92-37.65 42.43-38.48L42.43-38.48Q42.09-38.62 41.8-38.67 41.5-38.72 41.6-39.21L41.6-39.21Q40.72-39.45 40.01-39.92 39.31-40.38 38.62-40.97L38.62-40.97Q37.5-41.21 36.4-41.58 35.3-41.94 34.18-41.94L34.18-41.94Q33.4-41.94 32.67-41.65L32.67-41.65Q32.91-41.26 32.91-40.8 32.91-40.33 33.01-39.89L33.01-39.89Q34.57-39.5 34.91-37.99L34.91-37.99Q34.67-37.84 34.47-37.62 34.28-37.4 34.11-37.23 33.94-37.06 33.69-36.91 33.45-36.77 33.11-36.77L33.11-36.77Q32.42-36.77 32.06-37.01 31.69-37.26 30.91-37.11L30.91-37.11Q30.08-37.84 29.3-38.65 28.52-39.45 27.54-40.09L27.54-40.09Q27.39-40.58 27.08-40.97 26.76-41.36 26.44-41.72 26.12-42.09 25.85-42.5 25.59-42.92 25.59-43.46L25.59-43.46Q25.59-43.8 25.63-43.95L25.63-43.95Q25.34-44.04 25.2-44.04L25.2-44.04Q24.8-44.04 24.46-43.77 24.12-43.51 23.68-43.41L23.68-43.41Q23.29-42.24 22.56-41.36 21.83-40.48 21.04-39.65 20.26-38.82 19.6-37.92 18.95-37.01 18.65-35.69L18.65-35.69Q17.09-33.74 15.77-31.27 14.45-28.81 13.77-26.46L13.77-26.46Q12.65-25.2 12.01-23.78 11.38-22.36 11.28-20.65L11.28-20.65Q11.04-20.51 10.89-20.26L10.89-20.26 10.4-19.29Q10.3-19.04 10.06-18.9L10.06-18.9 10.06-18.65Q10.06-18.26 9.91-17.94 9.77-17.63 9.59-17.33 9.42-17.04 9.28-16.77 9.13-16.5 9.13-16.16L9.13-16.16Q9.13-15.77 9.33-15.38L9.33-15.38Q8.79-15.28 8.62-14.82 8.45-14.36 8.15-14.01L8.15-14.01Q7.96-12.45 7.76-10.84 7.57-9.23 7.57-7.67L7.57-7.67Q7.57-5.86 7.96-4L7.96-4Q8.4-3.56 8.74-3.03 9.08-2.49 9.45-2 9.81-1.51 10.25-1.15 10.69-0.78 11.43-0.68L11.43-0.68Q11.43-0.34 11.57-0.2 11.72-0.05 11.82 0.2L11.82 0.2Q12.84 0.54 13.96 0.76 15.09 0.98 16.21 0.98L16.21 0.98Q16.99 0.98 17.8 0.78 18.6 0.59 19.14 0L19.14 0Q21.63-0.1 24.1-1.17 26.56-2.25 28.61-3.52L28.61-3.52 29.64-3.52Q30.18-4.25 30.96-4.71 31.74-5.18 32.57-5.57L32.57-5.57Q32.71-5.66 32.96-5.76 33.2-5.86 33.35-5.96L33.35-5.96Q33.89-6.35 34.45-6.84 35.01-7.32 35.6-7.76L35.6-7.76Q36.57-8.5 37.6-9.18 38.62-9.86 39.58-10.64 40.53-11.43 41.38-12.33 42.24-13.23 42.82-14.36L42.82-14.36Q43.12-14.36 43.29-14.53 43.46-14.7 43.58-14.89 43.7-15.09 43.87-15.23 44.04-15.38 44.38-15.38L44.38-15.38Q44.38-15.82 44.56-16.14 44.73-16.46 44.95-16.72 45.17-16.99 45.39-17.24 45.61-17.48 45.8-17.87L45.8-17.87 45.8-19.24Q46.58-20.51 46.95-21.92 47.31-23.34 47.31-24.8ZM101.41-6.15L101.41-6.15Q101.17-5.37 101.27-4.59L101.27-4.59Q101.12-4.39 100.93-4.35 100.73-4.3 100.53-4.22 100.34-4.15 100.22-4.03 100.1-3.91 100.19-3.56L100.19-3.56Q98.58-3.47 97.12-2.88 95.65-2.29 94.24-1.61L94.24-1.61Q93.5-1.86 92.97-2.2 92.43-2.54 91.6-2.64L91.6-2.64Q90.77-4.3 90.06-6.13 89.35-7.96 89.35-9.81L89.35-9.81Q89.35-11.18 89.84-12.3L89.84-12.3Q89.84-13.77 90.09-15.19 90.33-16.6 90.65-17.99 90.96-19.38 91.21-20.8 91.45-22.22 91.45-23.68L91.45-23.68 91.45-24.76Q91.35-24.76 91.21-24.54 91.06-24.32 90.94-24.05 90.82-23.78 90.72-23.54 90.62-23.29 90.57-23.24L90.57-23.24Q89.74-22.61 89.28-21.66 88.82-20.7 88.28-19.87L88.28-19.87Q87.6-18.85 86.84-17.87 86.08-16.89 84.96-16.36L84.96-16.36 84.96-16.26Q84.96-16.02 84.81-15.92 84.67-15.82 84.76-15.43L84.76-15.43Q83.54-15.04 82.49-14.31 81.44-13.57 80.76-12.45L80.76-12.45Q79.78-12.21 78.93-11.79 78.07-11.38 77.19-10.89L77.19-10.89Q76.8-10.69 76.36-10.4 75.93-10.11 75.49-10.01L75.49-10.01Q75.1-9.86 74.44-9.81 73.78-9.77 73.07-9.72 72.36-9.67 71.68-9.67L71.68-9.67 70.6-9.67Q70.36-9.67 69.97-9.91 69.58-10.16 69.11-10.45 68.65-10.74 68.16-11.01 67.67-11.28 67.23-11.38L67.23-11.38Q66.84-12.65 66.14-13.65 65.43-14.65 64.65-15.67L64.65-15.67Q64.4-16.85 63.99-18.12 63.57-19.38 62.55-20.21L62.55-20.21Q62.79-20.56 62.79-21L62.79-21Q62.79-21.53 62.55-22.02 62.3-22.51 62.3-23.1L62.3-23.1Q62.3-23.49 62.35-23.68L62.35-23.68Q61.81-23.1 61.59-22.19 61.37-21.29 61.37-20.56L61.37-20.56Q61.37-19.97 61.52-19.48L61.52-19.48Q61.03-18.8 60.91-17.77 60.79-16.75 60.79-15.97L60.79-15.97Q60.79-14.99 60.94-14.06L60.94-14.06Q60.15-13.28 60.15-12.16L60.15-12.16Q60.15-11.52 60.45-11.04L60.45-11.04Q60.45-10.84 60.35-10.74 60.25-10.64 60.13-10.6 60.01-10.55 59.89-10.47 59.76-10.4 59.76-10.21L59.76-10.21Q59.76-9.96 59.79-9.67 59.81-9.38 59.81-9.08L59.81-9.08Q59.81-8.4 59.76-7.67 59.71-6.93 59.71-6.25L59.71-6.25Q59.71-4.83 59.98-4.22 60.25-3.61 60.67-3.32 61.08-3.03 61.57-2.73 62.06-2.44 62.55-1.61L62.55-1.61Q62.4-1.17 62.03-0.9 61.67-0.63 61.35-0.37 61.03-0.1 60.79 0.24 60.54 0.59 60.59 1.22L60.59 1.22 60.35 1.22Q59.71 1.22 59.13 1.42 58.54 1.61 57.91 1.61L57.91 1.61Q57.76 1.61 57.61 1.59 57.47 1.56 57.32 1.56L57.32 1.56 56.83 1.27Q56.59 1.12 56.35 1.12L56.35 1.12Q56.1 1.12 55.71 1.22L55.71 1.22Q55.03-0.98 54.66-3.32 54.29-5.66 54.29-7.91L54.29-7.91Q54.29-8.15 54.42-8.42 54.54-8.69 54.78-8.59L54.78-8.59 54.78-9.52Q54.78-11.04 55.05-12.48 55.32-13.92 55.32-15.48L55.32-15.48Q55.32-15.92 55.3-16.36 55.27-16.8 55.22-17.19L55.22-17.19Q55.47-18.02 55.73-18.87 56-19.73 56-20.65L56-20.65Q56-21.04 55.86-21.58L55.86-21.58Q56.25-21.88 56.44-22.34 56.64-22.8 56.74-23.36 56.83-23.93 56.88-24.46 56.93-25 56.98-25.44L56.98-25.44Q57.47-26.42 57.52-27.54 57.57-28.66 58.01-29.64L58.01-29.64Q57.96-29.83 57.96-30.32L57.96-30.32Q57.96-31.3 58.27-32.3 58.59-33.3 59.57-33.84L59.57-33.84Q60.45-33.5 61.62-33.5L61.62-33.5Q62.74-33.5 63.77-33.84L63.77-33.84Q64.06-33.74 64.3-33.62 64.55-33.5 64.82-33.37 65.09-33.25 65.38-33.18 65.67-33.11 66.06-33.15L66.06-33.15Q66.55-31.74 66.92-30.27 67.28-28.81 67.48-27.29L67.48-27.29Q67.58-26.66 67.55-25.93 67.53-25.2 67.62-24.56L67.62-24.56Q67.67-24.17 67.87-23.85 68.06-23.54 68.26-23.14 68.45-22.75 68.58-22.27 68.7-21.78 68.65-21.04L68.65-21.04Q69.19-19.78 69.85-18.63 70.51-17.48 71.29-16.36L71.29-16.36Q71.73-16.21 72.07-15.99 72.41-15.77 72.51-15.28L72.51-15.28Q72.95-15.28 73.29-15.14L73.29-15.14 74.12-14.89Q75.97-15.48 77.56-16.46 79.15-17.43 80.91-18.12L80.91-18.12Q83.05-20.21 84.62-22.78 86.18-25.34 87.74-27.88L87.74-27.88 87.74-28.96Q88.03-29.1 88.25-29.32 88.47-29.54 88.82-29.64L88.82-29.64Q88.86-30.22 89.08-30.79 89.3-31.35 89.57-31.86 89.84-32.37 90.04-32.89 90.23-33.4 90.23-33.98L90.23-33.98Q90.23-34.33 90.18-34.57L90.18-34.57Q90.92-35.3 91.94-35.3L91.94-35.3Q92.92-35.3 93.92-34.84 94.92-34.38 95.8-33.98L95.8-33.98Q96.34-32.81 96.6-31.52 96.87-30.22 96.97-28.86 97.07-27.49 97.07-26.12L97.07-26.12 97.07-22.66Q97.02-22.27 96.8-22.09 96.58-21.92 96.48-21.58L96.48-21.58 96.48-21.09Q96.48-20.85 96.43-20.61L96.43-20.61Q96.43-19.58 96.19-18.46L96.19-18.46Q95.94-17.04 95.58-15.6 95.21-14.16 95.21-12.7L95.21-12.7Q95.21-12.16 95.26-11.62 95.31-11.08 95.46-10.55L95.46-10.55Q95.21-10.11 95.21-9.42L95.21-9.42Q95.21-8.64 95.48-7.98 95.75-7.32 96.14-6.69L96.14-6.69Q96.82-6.69 97.51-6.74 98.19-6.79 98.92-6.79L98.92-6.79Q99.61-6.79 100.19-6.67 100.78-6.54 101.41-6.15ZM135.15-32.08L135.15-32.08Q135.05-31.49 134.88-31.08 134.71-30.66 134.81-29.98L134.81-29.98Q134.32-29.93 134.05-29.66 133.78-29.39 133.61-29.05 133.44-28.71 133.27-28.34 133.1-27.98 132.86-27.69L132.86-27.69Q133.25-25.93 133.3-24.12 133.34-22.31 133.54-20.56L133.54-20.56Q133.78-18.31 134.3-16.14 134.81-13.96 134.81-11.72L134.81-11.72Q134.81-11.04 134.79-10.45 134.76-9.86 134.76-9.23L134.76-9.23Q134.76-8.84 134.79-8.42 134.81-8.01 134.81-7.62L134.81-7.62Q134.81-6.2 134.44-4.79 134.08-3.37 133.88-1.95L133.88-1.95Q133.3-1.42 132.88-0.78 132.47-0.15 132.03 0.39 131.59 0.93 131 1.34 130.41 1.76 129.54 1.9L129.54 1.9Q129.39 2.39 128.97 2.64 128.56 2.88 128.27 3.32L128.27 3.32 128.17 3.32Q126.95 3.32 126.07 2.98 125.19 2.64 124.43 2.2 123.68 1.76 122.9 1.27 122.11 0.78 121.09 0.49L121.09 0.49Q119.72-0.63 118.6-1.98 117.48-3.32 116.06-4.39L116.06-4.39Q115.72-5.37 115.16-6.01 114.59-6.64 114.06-7.47L114.06-7.47Q113.81-7.81 113.69-8.11 113.57-8.4 113.37-8.79L113.37-8.79Q113.23-9.18 112.91-9.33 112.59-9.47 112.35-9.67L112.35-9.67Q111.96-11.18 111.23-12.45 110.49-13.72 109.52-14.89L109.52-14.89Q109.22-14.36 109.05-13.75 108.88-13.13 108.74-12.52 108.59-11.91 108.37-11.3 108.15-10.69 107.81-10.21L107.81-10.21 107.81-10.06Q107.81-9.81 108-9.77 108.2-9.72 108.2-9.47L108.2-9.47Q108.2-9.42 108.17-9.38 108.15-9.33 108.15-9.28L108.15-9.28Q107.91-9.08 107.78-8.79 107.66-8.5 107.27-8.45L107.27-8.45Q107.32-8.2 107.32-7.96L107.32-7.96 107.32-7.52Q107.32-6.1 107-4.69 106.68-3.27 106.68-1.81L106.68-1.81 106.68-1.17Q106.68-0.83 106.73-0.54L106.73-0.54Q106.83-0.24 107.03 0.05 107.22 0.34 107.22 0.59L107.22 0.59Q107.22 0.93 106.93 1.22L106.93 1.22Q107.27 1.46 107.71 1.76 108.15 2.05 108.52 2.42 108.88 2.78 109.13 3.2 109.37 3.61 109.37 4.1L109.37 4.1Q109.37 4.93 108.83 5.27 108.3 5.62 107.54 5.81 106.78 6.01 105.98 6.18 105.17 6.35 104.63 6.79L104.63 6.79 104.49 6.79Q103.9 6.79 103.61 6.45 103.32 6.1 102.73 6.1L102.73 6.1Q101.8 4.59 101.46 2.71 101.12 0.83 101.12-0.88L101.12-0.88Q101.12-2.98 101.48-5.08 101.85-7.18 102.36-9.23 102.88-11.28 103.49-13.31 104.1-15.33 104.63-17.38L104.63-17.38 104.68-17.53Q104.68-17.77 104.56-17.87 104.44-17.97 104.44-18.16L104.44-18.16Q104.44-18.26 104.49-18.26L104.49-18.26Q104.63-18.75 104.8-19.19 104.98-19.63 105.07-20.17L105.07-20.17Q105.37-21.53 105.49-22.97 105.61-24.41 105.63-25.83 105.66-27.25 105.73-28.69 105.81-30.13 106.05-31.54L106.05-31.54Q106.44-31.93 106.78-32.37 107.12-32.81 107.66-33.15L107.66-33.15Q108.64-33.11 109.61-32.86 110.59-32.62 111.47-32.08L111.47-32.08Q112.06-29.98 112.28-27.88 112.5-25.78 113.03-23.68L113.03-23.68 113.03-23.54Q113.03-23.29 113.3-23.32 113.57-23.34 113.72-23.14L113.72-23.14Q113.62-23 113.59-22.8 113.57-22.61 113.57-22.41L113.57-22.41 113.57-21.58Q113.67-21.19 113.81-20.75 113.96-20.31 114.45-20.21L114.45-20.21Q114.69-18.65 115.18-17.33 115.67-16.02 116.3-14.79 116.94-13.57 117.67-12.38 118.4-11.18 119.18-9.86L119.18-9.86Q120.41-8.94 121.28-7.74 122.16-6.54 123.07-5.44 123.97-4.35 125.12-3.52 126.26-2.69 128.12-2.49L128.12-2.49Q128.36-2.69 128.46-3.03L128.46-3.03 128.71-3.71Q128.85-4.05 129.02-4.32 129.19-4.59 129.54-4.74L129.54-4.74Q129.63-6.1 129.76-7.52 129.88-8.94 130.37-10.21L130.37-10.21Q130.12-10.64 130.12-11.28L130.12-11.28Q130.12-11.77 130.2-12.21 130.27-12.65 130.27-13.09L130.27-13.09Q130.27-14.01 129.88-14.6L129.88-14.6Q129.88-14.94 129.93-15.31 129.98-15.67 130.22-16.02L130.22-16.02Q129.83-16.99 129.61-18.07 129.39-19.14 129.39-20.26L129.39-20.26Q129.39-20.9 129.54-21.58L129.54-21.58Q129.24-22.31 129.15-23.29L129.15-23.29 128.95-25.29Q128.85-26.32 128.66-27.2 128.46-28.08 127.92-28.61L127.92-28.61Q128.22-29.05 128.22-29.64L128.22-29.64Q128.22-30.62 127.92-31.49 127.63-32.37 127.63-33.35L127.63-33.35Q127.63-34.03 127.92-34.72L127.92-34.72Q129-34.67 130.05-34.5 131.1-34.33 132.12-34.33L132.12-34.33Q132.42-33.94 132.81-33.69 133.2-33.45 133.64-33.23 134.08-33.01 134.49-32.76 134.91-32.52 135.15-32.08ZM150.58-6.69L150.58-6.69Q150.33-6.3 149.99-5.98 149.65-5.66 149.36-5.32L149.36-5.32Q149.02-5.18 148.6-5.18 148.19-5.18 147.82-5.2 147.45-5.22 147.14-5.2 146.82-5.18 146.62-4.98L146.62-4.98Q146.23-5.08 146.04-5.35 145.84-5.62 145.35-5.66L145.35-5.66Q145.16-5.71 144.96-5.66L144.96-5.66Q144.23-6.49 143.62-7.42 143.01-8.35 142.47-9.18L142.47-9.18Q142.42-10.99 142.18-12.84L142.18-12.84Q142.13-13.28 142.03-13.72 141.94-14.16 141.89-14.55L141.89-14.55Q141.89-15.04 141.96-15.5 142.03-15.97 142.08-16.36L142.08-16.36Q142.28-17.77 142.52-19.14 142.77-20.51 142.96-21.92L142.96-21.92Q143.16-23.19 143.16-24.58 143.16-25.98 142.72-27.2L142.72-27.2 142.67-27.44Q142.77-27.83 142.89-28.1 143.01-28.37 143.06-28.71L143.06-28.71Q143.16-29.25 142.81-29.49L142.81-29.49Q142.96-29.88 143.3-30 143.64-30.13 143.69-30.57L143.69-30.57Q143.74-30.76 143.69-30.96L143.69-30.96Q144.08-31.1 144.5-31.23 144.91-31.35 145.31-31.25L145.31-31.25Q145.94-31.15 146.43-30.83 146.92-30.52 147.36-30.13L147.36-30.13Q148.14-27.78 147.99-25.17 147.84-22.56 147.5-19.92 147.16-17.29 147.06-14.77 146.97-12.26 147.84-10.11L147.84-10.11 147.94-10.06Q148.19-10.01 148.33-10.23 148.48-10.45 148.72-10.4L148.72-10.4Q148.92-10.3 148.97-10.3L148.97-10.3Q149.16-9.33 149.6-8.45 150.04-7.57 150.58-6.69ZM181.04-6.15L181.04-6.15Q181.04-5.32 180.63-4.71 180.21-4.1 180.31-3.22L180.31-3.22Q179.63-2.83 179.19-2.2 178.75-1.56 178.36-0.88L178.36-0.88Q175.14 1.22 171.45 2.51 167.76 3.81 163.86 3.81L163.86 3.81Q163.61 3.81 163.42 3.59 163.22 3.37 163.03 3.13 162.83 2.88 162.61 2.66 162.39 2.44 162.1 2.44L162.1 2.44Q161.76 2.44 161.56 2.59L161.56 2.59Q161.56 2.49 161.59 2.42 161.61 2.34 161.61 2.25L161.61 2.25Q161.61 1.66 161.46 1.05 161.32 0.44 161.32-0.15L161.32-0.15Q161.32-0.83 161.56-1.27L161.56-1.27 162.15-1.27Q162.64-1.27 163.1-1.34 163.56-1.42 164.1-1.42L164.1-1.42Q164.64-1.42 165.08-1.12L165.08-1.12Q167.76-1.22 170.18-2.12 172.6-3.03 175.09-3.91L175.09-3.91Q175.48-4.44 175.55-5.1 175.62-5.76 175.92-6.35L175.92-6.35Q174.65-7.42 173.35-8.03 172.06-8.64 170.35-8.45L170.35-8.45Q169.33-9.08 168.18-9.18 167.03-9.28 165.86-9.47L165.86-9.47Q165.57-9.52 165.25-9.59 164.93-9.67 164.59-9.67L164.59-9.67Q164.35-9.67 164.13-9.55 163.91-9.42 164-9.18L164-9.18Q163.76-9.57 163.34-9.64 162.93-9.72 162.64-10.01L162.64-10.01Q161.07-10.11 159.9-10.57 158.73-11.04 157.31-11.62L157.31-11.62Q156.92-11.77 156.56-11.84 156.19-11.91 155.85-12.11L155.85-12.11Q154.97-12.55 154.43-13.28 153.9-14.01 153.58-14.92 153.26-15.82 153.12-16.8 152.97-17.77 152.82-18.6L152.82-18.6Q153.26-19.38 153.63-20.21 153.99-21.04 154.24-21.97L154.24-21.97Q154.53-22.12 154.82-22.22 155.12-22.31 155.46-22.46L155.46-22.46Q155.41-22.56 155.41-22.71L155.41-22.71Q155.41-22.95 155.58-23.19 155.75-23.44 155.65-23.68L155.65-23.68Q156.73-24.66 157.73-25.71 158.73-26.76 159.46-28.03L159.46-28.03Q160.2-28.27 160.63-28.76 161.07-29.25 161.51-29.76 161.95-30.27 162.49-30.69 163.03-31.1 163.86-31.2L163.86-31.2Q164.05-31.54 164.39-31.76 164.74-31.98 165.08-32.18 165.42-32.37 165.71-32.62 166.01-32.86 166.15-33.3L166.15-33.3Q166.93-33.3 167.59-33.59 168.25-33.89 168.89-34.23 169.52-34.57 170.18-34.86 170.84-35.16 171.62-35.16L171.62-35.16Q171.82-35.16 172.01-35.13 172.21-35.11 172.45-35.06L172.45-35.06Q172.79-34.72 172.91-34.25 173.04-33.79 173.09-33.25 173.13-32.71 173.16-32.18 173.18-31.64 173.33-31.2L173.33-31.2Q172.89-30.37 172.38-29.54 171.87-28.71 171.03-28.27L171.03-28.27 170.94-28.27Q170.6-28.22 170.3-28.42 170.01-28.61 169.62-28.61L169.62-28.61Q169.37-28.61 169.23-28.47L169.23-28.47 168.98-28.22Q168.89-28.13 168.72-28.03 168.54-27.93 168.25-28.03L168.25-28.03Q167.57-27.78 167.71-27.2L167.71-27.2Q166.79-27.1 166.15-26.64 165.52-26.17 164.98-25.61 164.44-25.05 163.91-24.58 163.37-24.12 162.64-24.07L162.64-24.07Q161.81-22.61 160.61-21.48 159.41-20.36 158.63-18.95L158.63-18.95Q158.78-18.55 158.83-18.12 158.88-17.68 158.97-17.19L158.97-17.19Q159.41-16.6 160.02-16.16 160.63-15.72 161.22-15.28L161.22-15.28 161.37-15.28Q162.34-15.28 163.17-14.92 164-14.55 164.93-14.55L164.93-14.55Q165.42-14.55 165.76-14.75L165.76-14.75Q167.03-14.45 168.28-14.26 169.52-14.06 170.79-13.96L170.79-13.96Q171.43-13.87 172.08-13.87 172.74-13.87 173.33-13.72L173.33-13.72Q173.87-13.57 174.4-13.35 174.94-13.13 175.48-12.89L175.48-12.89Q176.6-12.4 177.6-11.82 178.6-11.23 179.38-10.42 180.17-9.62 180.61-8.57 181.04-7.52 181.04-6.15ZM220.3-8.79L220.54-8.79Q220.54-8.3 220.28-7.98 220.01-7.67 219.64-7.42 219.27-7.18 218.91-6.98 218.54-6.79 218.25-6.49L218.25-6.49Q218.05-6.3 217.98-6.03 217.91-5.76 217.71-5.66L217.71-5.66Q217.42-5.42 217.08-5.37 216.74-5.32 216.37-5.25 216-5.18 215.66-5.05 215.32-4.93 215.08-4.59L215.08-4.59Q212.78-4.35 210.56-3.96 208.34-3.56 205.99-3.56L205.99-3.56Q205.55-3.56 205.04-3.49 204.53-3.42 204.09-3.37L204.09-3.37Q203.06-3.27 202.06-3.22 201.06-3.17 200.04-3.17L200.04-3.17Q198.62-3.17 197.2-3.3 195.79-3.42 194.42-3.71L194.42-3.71Q194.08-3.96 193.64-4.1 193.2-4.25 192.74-4.39 192.27-4.54 191.88-4.74 191.49-4.93 191.3-5.32L191.3-5.32Q190.56-5.37 190-5.62 189.44-5.86 188.98-6.18 188.51-6.49 188.02-6.84 187.54-7.18 186.9-7.42L186.9-7.42Q186.41-8.11 185.9-8.76 185.39-9.42 184.66-9.86L184.66-9.86Q184.51-10.79 184.19-11.72 183.87-12.65 183.56-13.55 183.24-14.45 183.02-15.38 182.8-16.31 182.8-17.29L182.8-17.29Q182.8-17.97 183-18.95 183.19-19.92 183.51-20.92 183.83-21.92 184.26-22.8 184.7-23.68 185.14-24.22L185.14-24.22Q185.29-24.37 185.49-24.46 185.68-24.56 185.83-24.76L185.83-24.76Q186.27-25.24 186.76-25.56 187.24-25.88 187.78-26.32L187.78-26.32Q187.98-26.51 188.1-26.76 188.22-27 188.46-27.2L188.46-27.2Q188.61-27.29 188.88-27.25 189.15-27.2 189.34-27.34L189.34-27.34Q189.54-27.49 189.54-27.69 189.54-27.88 189.68-28.03L189.68-28.03Q189.73-28.08 189.98-28.05 190.22-28.03 190.27-28.03L190.27-28.03Q190.61-28.03 191.05-28.49 191.49-28.96 191.78-29.1L191.78-29.1Q192.13-29.3 192.47-29.37 192.81-29.44 193.2-29.64L193.2-29.64Q193.74-29.93 194.25-30.1 194.76-30.27 195.3-30.52L195.3-30.52Q195.59-30.62 195.84-30.86 196.08-31.1 196.33-31.2L196.33-31.2Q196.76-31.35 197.28-31.42 197.79-31.49 198.25-31.57 198.72-31.64 199.18-31.76 199.65-31.88 200.04-32.23L200.04-32.23 200.43-32.23Q201.31-32.23 202.14-32.47 202.97-32.71 203.84-32.71L203.84-32.71Q204.09-32.71 204.58-32.62L204.58-32.62Q204.97-32.86 205.46-32.86L205.46-32.86Q206.29-32.86 207.12-32.45 207.95-32.03 208.83-32.03L208.83-32.03 209.12-32.03Q209.31-32.03 209.51-32.08L209.51-32.08Q210.05-31.54 210.8-31.49 211.56-31.45 212.1-31.05L212.1-31.05Q212.44-30.76 212.66-30.37 212.88-29.98 213.02-29.54L213.02-29.54 213.32-28.66Q213.46-28.22 213.71-27.88L213.71-27.88Q213.46-26.12 212.27-25.07 211.07-24.02 209.26-24.02L209.26-24.02Q208.58-24.02 208.12-24.19 207.65-24.37 207.29-24.56 206.92-24.76 206.53-24.95 206.14-25.15 205.65-25.24L205.65-25.24Q206.19-26.22 206.34-27.34L206.34-27.34Q205.8-27.59 205.26-27.69 204.72-27.78 204.24-28.03L204.24-28.03Q202.92-27.69 201.67-27.56 200.43-27.44 199.35-26.51L199.35-26.51Q199.11-26.56 198.84-26.61 198.57-26.66 198.33-26.66L198.33-26.66Q198.03-26.66 197.16-26.25 196.28-25.83 195.28-25.29 194.27-24.76 193.37-24.22 192.47-23.68 192.13-23.49L192.13-23.49Q191.74-23.24 191.44-22.9 191.15-22.56 190.86-22.19 190.56-21.83 190.27-21.51 189.98-21.19 189.54-21.04L189.54-21.04Q189.44-20.51 189.2-20.12 188.95-19.73 188.66-19.29L188.66-19.29Q188.61-18.41 188.49-17.53 188.37-16.65 188.37-15.77L188.37-15.77 188.37-15.14Q188.37-14.84 188.46-14.6L188.46-14.6Q188.95-13.96 189.27-13.18 189.59-12.4 190.37-12.11L190.37-12.11Q190.42-11.91 190.34-11.87 190.27-11.82 190.22-11.62L190.22-11.62Q190.51-11.08 190.98-10.77 191.44-10.45 191.93-10.13 192.42-9.81 192.86-9.47 193.3-9.13 193.54-8.59L193.54-8.59Q194.27-8.59 194.93-8.35 195.59-8.11 196.2-7.81 196.81-7.52 197.38-7.28 197.94-7.03 198.52-7.03L198.52-7.03Q199.06-7.03 199.5-7.18L199.5-7.18Q200.77-6.79 202.06-6.62 203.36-6.45 204.68-6.45L204.68-6.45Q206.29-6.45 207.9-6.64 209.51-6.84 211.12-6.98L211.12-6.98Q211.71-7.08 212.24-7.08 212.78-7.08 213.32-7.18L213.32-7.18Q214-7.28 214.61-7.81 215.22-8.35 215.81-8.59L215.81-8.59Q216.34-8.25 217.08-8.25L217.08-8.25Q217.91-8.25 218.69-8.52 219.47-8.79 220.3-8.79L220.3-8.79ZM230.7-6.69L230.7-6.69Q230.45-6.3 230.11-5.98 229.77-5.66 229.48-5.32L229.48-5.32Q229.14-5.18 228.72-5.18 228.31-5.18 227.94-5.2 227.57-5.22 227.26-5.2 226.94-5.18 226.74-4.98L226.74-4.98Q226.35-5.08 226.16-5.35 225.96-5.62 225.47-5.66L225.47-5.66Q225.28-5.71 225.08-5.66L225.08-5.66Q224.35-6.49 223.74-7.42 223.13-8.35 222.59-9.18L222.59-9.18Q222.54-10.99 222.3-12.84L222.3-12.84Q222.25-13.28 222.15-13.72 222.06-14.16 222.01-14.55L222.01-14.55Q222.01-15.04 222.08-15.5 222.15-15.97 222.2-16.36L222.2-16.36Q222.4-17.77 222.64-19.14 222.89-20.51 223.08-21.92L223.08-21.92Q223.28-23.19 223.28-24.58 223.28-25.98 222.84-27.2L222.84-27.2 222.79-27.44Q222.89-27.83 223.01-28.1 223.13-28.37 223.18-28.71L223.18-28.71Q223.28-29.25 222.93-29.49L222.93-29.49Q223.08-29.88 223.42-30 223.76-30.13 223.81-30.57L223.81-30.57Q223.86-30.76 223.81-30.96L223.81-30.96Q224.2-31.1 224.62-31.23 225.03-31.35 225.42-31.25L225.42-31.25Q226.06-31.15 226.55-30.83 227.04-30.52 227.48-30.13L227.48-30.13Q228.26-27.78 228.11-25.17 227.96-22.56 227.62-19.92 227.28-17.29 227.18-14.77 227.08-12.26 227.96-10.11L227.96-10.11 228.06-10.06Q228.31-10.01 228.45-10.23 228.6-10.45 228.84-10.4L228.84-10.4Q229.04-10.3 229.09-10.3L229.09-10.3Q229.28-9.33 229.72-8.45 230.16-7.57 230.7-6.69ZM266.24-31.05L266.24-31.05 266.24-30.86Q265.9-30.76 265.9-30.37L265.9-30.37Q265.36-30.13 264.78-30 264.19-29.88 263.65-29.64L263.65-29.64Q263.12-29.69 262.56-29.71 261.99-29.74 261.46-29.74L261.46-29.74Q259.99-29.74 258.53-29.64 257.06-29.54 255.6-29.64L255.6-29.64Q254.91-29.25 254.11-29.03 253.3-28.81 252.57-28.81L252.57-28.81Q251.98-28.81 251.55-28.96L251.55-28.96Q250.37-28.37 248.98-27.98 247.59-27.59 246.17-27.22 244.76-26.86 243.46-26.39 242.17-25.93 241.19-25.1L241.19-25.1Q241.1-24.41 241.05-23.75 241-23.1 241-22.46L241-22.46Q241-21.78 241.07-21.19 241.14-20.61 241.39-20.02L241.39-20.02Q241.63-19.92 241.95-19.87 242.27-19.82 242.51-19.82L242.51-19.82Q242.76-19.82 243-19.9 243.24-19.97 243.34-20.21L243.34-20.21Q244.07-20.31 244.81-20.29 245.54-20.26 246.27-20.26L246.27-20.26Q247-20.26 247.71-20.31 248.42-20.36 249.1-20.56L249.1-20.56Q249.88-20.75 250.64-20.8 251.4-20.85 252.13-20.9 252.86-20.95 253.64-21.07 254.43-21.19 255.26-21.58L255.26-21.58Q255.89-21.34 256.55-21.34 257.21-21.34 257.84-21.24L257.84-21.24Q258.19-21 258.41-20.7 258.63-20.41 258.63-20.02L258.63-20.02Q258.63-19.34 258.14-18.65 257.65-17.97 257.36-17.38L257.36-17.38 256.82-17.38Q255.65-17.38 254.55-17.07 253.45-16.75 252.35-16.33 251.25-15.92 250.15-15.6 249.05-15.28 247.88-15.28L247.88-15.28Q247.69-15.28 247.66-15.06 247.64-14.84 247.54-14.75L247.54-14.75Q247.3-14.79 246.81-14.79L246.81-14.79Q245.69-14.79 244.66-14.55 243.63-14.31 242.56-14.31L242.56-14.31Q242.27-14.31 241.97-14.33 241.68-14.36 241.39-14.4L241.39-14.4Q241.14-14.01 240.75-13.89 240.36-13.77 240.02-13.48L240.02-13.48Q239.88-13.04 239.85-12.4 239.83-11.77 239.8-11.11 239.78-10.45 239.68-9.86 239.58-9.28 239.29-8.94L239.29-8.94Q239.34-8.69 239.68-8.76 240.02-8.84 240.02-8.45L240.02-8.45Q240.02-8.01 239.92-7.52 239.83-7.03 239.83-6.54L239.83-6.54Q239.83-5.62 240.05-4.52 240.27-3.42 240.73-2.49 241.19-1.56 241.97-0.95 242.76-0.34 243.93-0.34L243.93-0.34Q244.71-0.34 245.39-0.63 246.08-0.93 246.52-1.61L246.52-1.61 246.76-1.66Q246.96-1.66 247.13-1.61 247.3-1.56 247.49-1.56L247.49-1.56Q247.79-1.56 248.25-1.93 248.71-2.29 249.27-2.78 249.84-3.27 250.42-3.74 251.01-4.2 251.55-4.39L251.55-4.39Q251.89-5.08 252.2-5.76 252.52-6.45 253.16-6.84L253.16-6.84 253.16-8.25Q253.64-8.79 254.21-9.23 254.77-9.67 255.06-10.35L255.06-10.35Q255.3-10.25 255.52-10.21 255.74-10.16 255.99-10.16L255.99-10.16Q256.23-10.16 256.5-10.21 256.77-10.25 257.01-10.35L257.01-10.35Q257.4-9.81 257.62-9.16 257.84-8.5 258.19-7.91L258.19-7.91Q257.75-7.03 257.16-5.81 256.57-4.59 255.89-3.37 255.21-2.15 254.45-1.05 253.69 0.05 252.96 0.63L252.96 0.63Q252.81 0.78 252.33 0.98L252.33 0.98Q251.79 1.37 251.35 1.73 250.91 2.1 250.52 2.59L250.52 2.59Q249.1 3.03 247.81 3.76 246.52 4.49 245.25 5.18L245.25 5.18Q244.66 5.03 243.98 5.03L243.98 5.03Q243.39 5.03 242.8 5.1 242.22 5.18 241.54 5.18L241.54 5.18Q241.34 4.93 240.97 4.86 240.61 4.79 240.71 4.35L240.71 4.35Q239.05 4.25 238.02 3.44 236.99 2.64 236.29 1.46 235.58 0.29 235.14-1.07 234.7-2.44 234.21-3.71L234.21-3.71 234.21-3.86Q234.21-4.1 234.41-4.15 234.6-4.2 234.6-4.44L234.6-4.44Q234.6-4.54 234.55-4.59L234.55-4.59Q234.41-5.13 234.31-5.52 234.21-5.91 234.21-6.45L234.21-6.45Q234.21-7.23 234.31-7.98 234.41-8.74 234.41-9.52L234.41-9.52Q234.41-10.3 234.21-10.89L234.21-10.89Q234.41-11.13 234.53-11.55 234.65-11.96 234.7-12.4 234.75-12.84 234.77-13.28 234.8-13.72 234.89-14.06L234.89-14.06Q234.7-14.6 234.55-15.01 234.41-15.43 234.41-16.02L234.41-16.02 234.41-16.36Q234.89-17.19 235.24-18.07 235.58-18.95 235.97-19.87L235.97-19.87 235.97-20.02Q235.97-21.44 235.87-22.85 235.77-24.27 235.77-25.68L235.77-25.68 235.77-26.61Q235.77-27.1 235.82-27.54L235.82-27.54Q236.21-27.73 236.41-28.08 236.6-28.42 236.99-28.61L236.99-28.61 238.61-28.61 238.9-29.1Q239.05-29.35 239.09-29.64L239.09-29.64Q239.63-29.79 240.14-30.05 240.66-30.32 241.1-30.62L241.1-30.62Q241.78-31.01 242.34-31.32 242.9-31.64 243.46-31.86 244.03-32.08 244.66-32.23 245.3-32.37 246.13-32.47L246.13-32.47Q246.52-32.47 246.64-32.62 246.76-32.76 247-32.96L247-32.96Q247.59-32.86 248.18-32.79 248.76-32.71 249.35-32.71L249.35-32.71Q250.52-32.71 251.55-33.15L251.55-33.15Q253.01-33.15 254.45-33.2 255.89-33.25 257.36-33.25L257.36-33.25Q258.63-33.25 259.89-33.15 261.16-33.06 262.38-32.81L262.38-32.81Q262.82-32.96 263.36-32.96L263.36-32.96Q263.95-32.96 264.56-32.84 265.17-32.71 265.75-32.81L265.75-32.81Q265.8-32.28 266.02-31.91 266.24-31.54 266.24-31.05ZM296.02-32.08L296.02-32.08Q295.93-31.49 295.76-31.08 295.59-30.66 295.68-29.98L295.68-29.98Q295.19-29.93 294.93-29.66 294.66-29.39 294.49-29.05 294.32-28.71 294.15-28.34 293.97-27.98 293.73-27.69L293.73-27.69Q294.12-25.93 294.17-24.12 294.22-22.31 294.41-20.56L294.41-20.56Q294.66-18.31 295.17-16.14 295.68-13.96 295.68-11.72L295.68-11.72Q295.68-11.04 295.66-10.45 295.63-9.86 295.63-9.23L295.63-9.23Q295.63-8.84 295.66-8.42 295.68-8.01 295.68-7.62L295.68-7.62Q295.68-6.2 295.32-4.79 294.95-3.37 294.76-1.95L294.76-1.95Q294.17-1.42 293.75-0.78 293.34-0.15 292.9 0.39 292.46 0.93 291.87 1.34 291.29 1.76 290.41 1.9L290.41 1.9Q290.26 2.39 289.85 2.64 289.43 2.88 289.14 3.32L289.14 3.32 289.04 3.32Q287.82 3.32 286.94 2.98 286.06 2.64 285.31 2.2 284.55 1.76 283.77 1.27 282.99 0.78 281.96 0.49L281.96 0.49Q280.6-0.63 279.47-1.98 278.35-3.32 276.93-4.39L276.93-4.39Q276.59-5.37 276.03-6.01 275.47-6.64 274.93-7.47L274.93-7.47Q274.69-7.81 274.56-8.11 274.44-8.4 274.25-8.79L274.25-8.79Q274.1-9.18 273.78-9.33 273.47-9.47 273.22-9.67L273.22-9.67Q272.83-11.18 272.1-12.45 271.37-13.72 270.39-14.89L270.39-14.89Q270.1-14.36 269.93-13.75 269.76-13.13 269.61-12.52 269.46-11.91 269.24-11.3 269.02-10.69 268.68-10.21L268.68-10.21 268.68-10.06Q268.68-9.81 268.88-9.77 269.07-9.72 269.07-9.47L269.07-9.47Q269.07-9.42 269.05-9.38 269.02-9.33 269.02-9.28L269.02-9.28Q268.78-9.08 268.66-8.79 268.53-8.5 268.14-8.45L268.14-8.45Q268.19-8.2 268.19-7.96L268.19-7.96 268.19-7.52Q268.19-6.1 267.88-4.69 267.56-3.27 267.56-1.81L267.56-1.81 267.56-1.17Q267.56-0.83 267.61-0.54L267.61-0.54Q267.7-0.24 267.9 0.05 268.1 0.34 268.1 0.59L268.1 0.59Q268.1 0.93 267.8 1.22L267.8 1.22Q268.14 1.46 268.58 1.76 269.02 2.05 269.39 2.42 269.76 2.78 270 3.2 270.24 3.61 270.24 4.1L270.24 4.1Q270.24 4.93 269.71 5.27 269.17 5.62 268.41 5.81 267.66 6.01 266.85 6.18 266.04 6.35 265.51 6.79L265.51 6.79 265.36 6.79Q264.77 6.79 264.48 6.45 264.19 6.1 263.6 6.1L263.6 6.1Q262.68 4.59 262.33 2.71 261.99 0.83 261.99-0.88L261.99-0.88Q261.99-2.98 262.36-5.08 262.72-7.18 263.24-9.23 263.75-11.28 264.36-13.31 264.97-15.33 265.51-17.38L265.51-17.38 265.56-17.53Q265.56-17.77 265.43-17.87 265.31-17.97 265.31-18.16L265.31-18.16Q265.31-18.26 265.36-18.26L265.36-18.26Q265.51-18.75 265.68-19.19 265.85-19.63 265.95-20.17L265.95-20.17Q266.24-21.53 266.36-22.97 266.48-24.41 266.51-25.83 266.53-27.25 266.61-28.69 266.68-30.13 266.92-31.54L266.92-31.54Q267.31-31.93 267.66-32.37 268-32.81 268.53-33.15L268.53-33.15Q269.51-33.11 270.49-32.86 271.46-32.62 272.34-32.08L272.34-32.08Q272.93-29.98 273.15-27.88 273.37-25.78 273.91-23.68L273.91-23.68 273.91-23.54Q273.91-23.29 274.17-23.32 274.44-23.34 274.59-23.14L274.59-23.14Q274.49-23 274.47-22.8 274.44-22.61 274.44-22.41L274.44-22.41 274.44-21.58Q274.54-21.19 274.69-20.75 274.83-20.31 275.32-20.21L275.32-20.21Q275.57-18.65 276.05-17.33 276.54-16.02 277.18-14.79 277.81-13.57 278.54-12.38 279.28-11.18 280.06-9.86L280.06-9.86Q281.28-8.94 282.16-7.74 283.04-6.54 283.94-5.44 284.84-4.35 285.99-3.52 287.14-2.69 288.99-2.49L288.99-2.49Q289.24-2.69 289.34-3.03L289.34-3.03 289.58-3.71Q289.73-4.05 289.9-4.32 290.07-4.59 290.41-4.74L290.41-4.74Q290.51-6.1 290.63-7.52 290.75-8.94 291.24-10.21L291.24-10.21Q291-10.64 291-11.28L291-11.28Q291-11.77 291.07-12.21 291.14-12.65 291.14-13.09L291.14-13.09Q291.14-14.01 290.75-14.6L290.75-14.6Q290.75-14.94 290.8-15.31 290.85-15.67 291.09-16.02L291.09-16.02Q290.7-16.99 290.48-18.07 290.26-19.14 290.26-20.26L290.26-20.26Q290.26-20.9 290.41-21.58L290.41-21.58Q290.12-22.31 290.02-23.29L290.02-23.29 289.82-25.29Q289.73-26.32 289.53-27.2 289.34-28.08 288.8-28.61L288.8-28.61Q289.09-29.05 289.09-29.64L289.09-29.64Q289.09-30.62 288.8-31.49 288.51-32.37 288.51-33.35L288.51-33.35Q288.51-34.03 288.8-34.72L288.8-34.72Q289.87-34.67 290.92-34.5 291.97-34.33 293-34.33L293-34.33Q293.29-33.94 293.68-33.69 294.07-33.45 294.51-33.23 294.95-33.01 295.37-32.76 295.78-32.52 296.02-32.08ZM342.8-31.4L342.95-31.4Q342.75-30.76 342.31-30.22L342.31-30.22 341.48-29.2Q341.09-28.71 340.82-28.15 340.55-27.59 340.65-26.86L340.65-26.86Q340.55-26.86 340.41-26.88 340.26-26.9 340.16-26.9L340.16-26.9Q339.38-26.9 338.97-26.54 338.55-26.17 337.87-25.93L337.87-25.93Q337.77-26.22 337.62-26.49 337.48-26.76 337.18-26.86L337.18-26.86Q336.01-26.61 334.84-26.49 333.67-26.37 332.5-26.17L332.5-26.17Q331.96-26.07 331.42-25.9 330.89-25.73 330.3-25.59L330.3-25.59Q330.01-25.49 329.67-25.51 329.32-25.54 328.98-25.49L328.98-25.49Q327.81-25.44 326.44-25.32 325.08-25.2 324-24.56L324-24.56Q323.51-24.66 322.98-24.71 322.44-24.76 321.9-24.76L321.9-24.76Q320.73-24.76 319.34-24.54 317.95-24.32 316.87-23.68L316.87-23.68Q316.63-23.78 316.36-23.83 316.09-23.88 315.75-23.88L315.75-23.88Q315.65-23.88 315.6-23.85 315.55-23.83 315.46-23.83L315.46-23.83Q315.41-23.39 315.58-22.97 315.75-22.56 316.19-22.31L316.19-22.31Q315.99-21.78 315.99-21.14L315.99-21.14Q315.99-20.31 316.12-19.48 316.24-18.65 316.24-17.82L316.24-17.82Q316.24-16.89 315.99-16.36L315.99-16.36Q316.48-14.89 316.48-13.23L316.48-13.23Q316.48-12.65 316.41-12.08 316.33-11.52 316.33-10.89L316.33-10.89Q316.33-10.35 316.73-10.03 317.12-9.72 317.12-9.18L317.12-9.18Q317.12-8.98 317.02-8.79L317.02-8.79Q317.7-8.94 318.34-9.2 318.97-9.47 319.66-9.47L319.66-9.47Q320.05-9.47 320.41-9.33 320.78-9.18 321.07-8.94L321.07-8.94Q321.02-8.69 321-8.4 320.97-8.11 320.97-7.81L320.97-7.81Q320.97-7.28 321-6.81 321.02-6.35 321.07-5.81L321.07-5.81Q320.68-5.13 320.17-4.59 319.66-4.05 319.46-3.22L319.46-3.22Q318.73-3.22 318.17-2.91 317.6-2.59 317.12-2.22 316.63-1.86 316.14-1.54 315.65-1.22 315.07-1.22L315.07-1.22Q314.33-1.22 314.04-1.44 313.75-1.66 313.6-1.9 313.45-2.15 313.33-2.34 313.21-2.54 312.82-2.49L312.82-2.49Q312.72-3.13 312.43-3.69 312.14-4.25 311.82-4.79 311.5-5.32 311.18-5.88 310.87-6.45 310.72-7.03L310.72-7.03Q310.43-8.3 310.48-9.67 310.52-11.04 310.04-12.3L310.04-12.3Q310.13-12.99 310.18-13.7 310.23-14.4 310.23-15.09L310.23-15.09Q310.23-16.46 310.16-17.8 310.08-19.14 310.04-20.56L310.04-20.56Q309.69-21 309.62-21.56 309.55-22.12 309.5-22.66L309.5-22.66Q309.35-22.8 309.18-22.95 309.01-23.1 308.96-23.34L308.96-23.34Q308.57-23.44 308.38-23.44L308.38-23.44Q307.69-23.44 307.23-23.12 306.76-22.8 306.37-22.8L306.37-22.8Q305.98-22.8 305.64-22.9 305.3-23 304.96-23L304.96-23Q304.67-23 304.64-22.88 304.62-22.75 304.42-22.66L304.42-22.66Q304.27-22.56 303.74-22.46 303.2-22.36 302.54-22.29 301.88-22.22 301.27-22.17 300.66-22.12 300.47-22.12L300.47-22.12Q299.68-22.12 299.27-22.44 298.85-22.75 298.27-23.14L298.27-23.14Q298.37-23.44 298.37-23.54L298.37-23.54Q298.37-24.02 298.07-24.34 297.78-24.66 297.78-24.9L297.78-24.9Q297.78-25.44 298.2-25.73 298.61-26.03 298.66-26.66L298.66-26.66Q299.78-27.15 300.95-27.39 302.13-27.64 303.35-27.78 304.57-27.93 305.76-28.13 306.96-28.32 308.13-28.76L308.13-28.76Q308.47-28.71 308.79-28.69 309.11-28.66 309.45-28.66L309.45-28.66Q310.92-28.66 312.36-28.98 313.8-29.3 315.31-29.3L315.31-29.3Q315.7-29.3 316.09-29.25 316.48-29.2 316.87-29.1L316.87-29.1Q318.83-29.39 320.75-29.74 322.68-30.08 324.73-30.32L324.73-30.32Q325.71-30.42 326.66-30.49 327.61-30.57 328.59-30.71L328.59-30.71Q328.93-30.76 329.1-30.88 329.27-31.01 329.27-31.4L329.27-31.4Q329.71-31.2 330.25-31.2L330.25-31.2Q331.08-31.2 331.86-31.49 332.64-31.79 333.47-31.79L333.47-31.79Q333.67-31.79 333.82-31.76 333.96-31.74 334.11-31.74L334.11-31.74Q334.45-31.74 334.47-32.06 334.5-32.37 334.94-32.47L334.94-32.47Q335.28-32.57 335.92-32.62 336.55-32.67 337.26-32.74 337.97-32.81 338.58-32.93 339.19-33.06 339.48-33.3L339.48-33.3 339.82-33.84Q340.7-33.79 341.12-33.08 341.53-32.37 341.58-31.54L341.58-31.54Q341.77-31.35 342.14-31.37 342.51-31.4 342.8-31.4L342.8-31.4ZM414.91 2L414.91 2Q414.82 2.98 414.23 3.54 413.64 4.1 412.72 4.1L412.72 4.1Q412.23 4.1 411.79 3.96L411.79 3.96Q410.86 4.69 409.59 5.08 408.32 5.47 407.2 5.86L407.2 5.86Q405.83 5.81 404.51 5.62 403.2 5.42 401.78 5.52L401.78 5.52Q401.29 5.18 400.75 5.08 400.22 4.98 399.66 4.96 399.09 4.93 398.58 4.79 398.07 4.64 397.58 4.1L397.58 4.1 395.14 4.1Q394.8 4.1 394.14 3.78 393.48 3.47 392.67 3.13 391.87 2.78 390.96 2.49 390.06 2.2 389.28 2.2L389.28 2.2 388.99 2.2Q388.45 1.76 387.74 1.54 387.03 1.32 386.3 1.15 385.57 0.98 384.88 0.78 384.2 0.59 383.71 0.24L383.71 0.24Q383.22-0.1 382.59-0.46 381.95-0.83 381.27-0.78L381.27-0.78Q380.34-1.32 379.34-1.71 378.34-2.1 377.32-2.44L377.32-2.44 375.31-3.17Q374.34-3.56 373.36-4.1L373.36-4.1Q373.21-4.05 373.02-4.1 372.82-4.15 372.68-4.15L372.68-4.15Q372.38-4.15 372.34-3.96L372.34-3.96Q371.99-4.3 371.58-4.54 371.16-4.79 370.77-5.13L370.77-5.13Q370.58-5.08 370.41-5.05 370.24-5.03 369.99-5.03L369.99-5.03Q369.55-5.03 369.14-5.13 368.72-5.22 368.33-5.37L368.33-5.37Q367.89-4.39 367.75-3.17 367.6-1.95 367.53-0.66 367.45 0.63 367.36 1.93 367.26 3.22 366.92 4.3L366.92 4.3Q367.01 4.69 367.01 5.08L367.01 5.08 367.01 5.91Q367.01 6.74 367.26 7.23L367.26 7.23Q367.16 7.67 367.09 8.06 367.01 8.45 366.92 8.84L366.92 8.84Q366.96 9.38 366.99 9.84 367.01 10.3 367.01 10.84L367.01 10.84 367.01 11.67Q367.01 12.11 366.92 12.55L366.92 12.55Q366.43 12.84 365.94 13.11 365.45 13.38 364.96 13.77L364.96 13.77Q364.62 13.13 363.79 13.04L363.79 13.04Q363.6 13.28 363.52 13.7 363.45 14.11 363.06 14.11L363.06 14.11Q362.37 13.57 361.94 13.23 361.5 12.89 360.96 12.21L360.96 12.21Q360.91 12.11 360.91 11.96L360.91 11.96Q360.91 11.72 361.01 11.52 361.11 11.33 361.11 11.13L361.11 11.13Q361.11 10.55 360.96 10.11L360.96 10.11Q360.86 9.47 360.81 8.86 360.76 8.25 360.76 7.67L360.76 7.67Q360.76 6.84 360.89 6.05 361.01 5.27 361.35 4.44L361.35 4.44Q361.89 3.03 362.11 1.46 362.33-0.1 362.42-1.68 362.52-3.27 362.55-4.88 362.57-6.49 362.72-7.96L362.72-7.96Q362.37-8.74 361.91-9.2 361.45-9.67 361.45-10.69L361.45-10.69Q361.45-11.62 362.03-12.13 362.62-12.65 363.06-13.38L363.06-13.38Q362.96-13.67 363.2-13.77L363.2-13.77 363.79-18.9Q363.84-19.43 363.96-20.07 364.08-20.7 364.13-21.24L364.13-21.24Q364.23-22.36 364.23-23.44 364.23-24.51 364.33-25.59L364.33-25.59Q364.57-27.98 364.79-30.32 365.01-32.67 365.01-35.01L365.01-35.01Q365.01-36.13 364.94-37.26 364.87-38.38 364.62-39.5L364.62-39.5Q363.79-39.26 362.79-38.99 361.79-38.72 361.11-38.09L361.11-38.09 360.71-38.09Q359.45-38.09 358.35-37.6 357.25-37.11 356.12-36.67L356.12-36.67Q355.64-36.43 355.15-36.35 354.66-36.28 354.12-36.13L354.12-36.13Q353.88-36.08 353.59-35.84 353.29-35.6 353.05-35.5L353.05-35.5 352.22-35.3Q351.88-35.21 351.93-34.86 351.97-34.52 351.68-34.42L351.68-34.42Q351.44-34.18 351-34.2 350.56-34.23 350.31-34.23L350.31-34.23 350.12-34.23Q348.9-33.35 347.75-32.74 346.6-32.13 345.04-31.93L345.04-31.93 343.97-31.25Q343.43-30.91 342.75-30.91L342.75-30.91Q342.21-30.91 341.87-31.1L341.87-31.1Q341.48-31.69 341.26-32.42 341.04-33.15 340.5-33.69L340.5-33.69Q340.74-33.94 340.82-34.35 340.89-34.77 340.99-35.11L340.99-35.11Q342.45-35.74 343.94-36.33 345.43-36.91 346.8-37.74L346.8-37.74Q346.95-37.7 347.24-37.7L347.24-37.7Q347.73-37.7 348.12-37.84 348.51-37.99 348.9-38.18 349.29-38.38 349.68-38.53 350.07-38.67 350.61-38.62L350.61-38.62Q352.27-39.55 354.12-40.14 355.98-40.72 357.64-41.75L357.64-41.75Q357.88-41.75 358.05-41.65 358.22-41.55 358.42-41.55L358.42-41.55Q358.62-41.55 358.66-41.6L358.66-41.6Q358.96-41.99 359.45-42.16 359.93-42.33 360.45-42.46 360.96-42.58 361.42-42.8 361.89-43.02 362.03-43.51L362.03-43.51Q362.28-43.31 362.77-43.31L362.77-43.31Q363.6-43.31 364.3-43.65 365.01-43.99 365.84-43.99L365.84-43.99Q366.04-43.99 366.21-43.92 366.38-43.85 366.57-43.85L366.57-43.85Q366.96-43.85 366.99-44.09 367.01-44.34 367.26-44.53L367.26-44.53Q370.24-45.07 373.19-45.51 376.14-45.95 379.17-45.95L379.17-45.95Q379.61-46.24 380.15-46.24L380.15-46.24Q380.69-46.24 381.12-45.95L381.12-45.95Q381.95-46.04 382.79-46.09 383.62-46.14 384.45-46.14L384.45-46.14Q386.35-46.14 388.35-45.9 390.35-45.65 392.33-45.14 394.31-44.63 396.12-43.77 397.92-42.92 399.48-41.75L399.48-41.75Q399.63-41.31 399.87-40.87 400.12-40.43 400.51-40.19L400.51-40.19Q400.51-40.09 400.49-40.04 400.46-39.99 400.46-39.89L400.46-39.89Q400.46-39.36 400.78-38.87 401.1-38.38 401.1-37.7L401.1-37.7Q401.1-37.01 400.88-36.33 400.66-35.64 400.7-34.96L400.7-34.96Q400.17-34.18 399.8-33.54 399.44-32.91 399.34-31.93L399.34-31.93Q398.46-31.05 397.78-30 397.09-28.96 396.38-27.95 395.68-26.95 394.8-26.12 393.92-25.29 392.7-24.8L392.7-24.8Q392.65-24.32 392.31-23.73L392.31-23.73 391.28-23.73Q391.13-23.34 390.79-23.14L390.79-23.14 390.11-22.75Q389.77-22.56 389.55-22.27 389.33-21.97 389.33-21.44L389.33-21.44Q389.23-21.48 389.08-21.48L389.08-21.48Q388.6-21.48 387.94-21 387.28-20.51 386.89-20.21L386.89-20.21Q386.06-19.63 385.2-19.14 384.35-18.65 383.71-17.77L383.71-17.77Q381.76-16.94 380-15.84 378.24-14.75 376.19-14.11L376.19-14.11Q375.41-13.28 374.36-12.82 373.31-12.35 372.34-11.82L372.34-11.82 372.34-11.67Q372.34-11.28 372.63-10.91 372.92-10.55 373.31-10.28 373.7-10.01 374.17-9.91 374.63-9.81 374.97-9.91L374.97-9.91Q375.95-9.03 377.22-8.5 378.49-7.96 379.86-7.52 381.22-7.08 382.54-6.59 383.86-6.1 384.98-5.37L384.98-5.37 386.15-5.37Q387.28-4.39 388.82-3.91 390.35-3.42 391.77-3.03L391.77-3.03Q392.36-2.49 393.26-2.22 394.16-1.95 394.99-1.95L394.99-1.95 395.29-1.95Q395.48-1.95 395.63-2L395.63-2 395.63-1.9Q395.63-1.66 395.77-1.59 395.92-1.51 396.09-1.49 396.26-1.46 396.43-1.39 396.6-1.32 396.7-1.17L396.7-1.17 397.19-1.17Q398.21-1.17 399.14-0.76 400.07-0.34 401.1-0.34L401.1-0.34Q401.54-0.34 401.78-0.44L401.78-0.44Q402.07-0.34 402.22-0.05 402.37 0.24 402.61 0.44L402.61 0.44Q402.95 0.39 403.24 0.37 403.54 0.34 403.83 0.34L403.83 0.34Q404.9 0.34 405.83 0.59 406.76 0.83 407.74 1.32L407.74 1.32Q409.3 0.63 410.81 0.2 412.33-0.24 414.04-0.24L414.04-0.24 414.04-0.15Q414.04 0.44 414.35 0.95 414.67 1.46 414.91 2ZM396.21-36.96L396.21-36.96Q396.21-37.55 395.99-37.89 395.77-38.23 395.43-38.5 395.09-38.77 394.72-39.01 394.36-39.26 394.06-39.65L394.06-39.65Q392.79-40.04 391.57-40.53 390.35-41.02 389.08-41.36L389.08-41.36Q388.45-41.5 387.81-41.63 387.18-41.75 386.54-41.75L386.54-41.75 385.47-41.75Q385.18-41.8 384.86-41.87 384.54-41.94 384.25-41.99L384.25-41.99Q383.57-42.09 382.91-42.14 382.25-42.19 381.56-42.19L381.56-42.19Q380.29-42.19 379.03-42.09L379.03-42.09 376.49-41.89Q375.95-41.85 375.36-41.85 374.78-41.85 374.29-41.75L374.29-41.75Q374.04-41.7 373.61-41.53 373.17-41.36 372.68-41.19 372.19-41.02 371.73-40.82 371.26-40.63 370.92-40.53L370.92-40.53Q370.97-40.19 370.97-39.84L370.97-39.84 370.97-39.21Q370.97-38.48 370.92-37.74 370.87-37.01 370.72-36.28L370.72-36.28Q370.68-35.99 370.58-35.69 370.48-35.4 370.43-35.11L370.43-35.11Q370.33-34.67 370.33-34.13L370.33-34.13 370.33-33.2Q370.24-32.08 370.19-31.01 370.14-29.93 370.04-28.81L370.04-28.81Q369.75-25.59 369.43-22.41 369.11-19.24 369.02-16.02L369.02-16.02Q370.63-16.36 372.09-17.04 373.56-17.72 374.97-18.53 376.39-19.34 377.8-20.12 379.22-20.9 380.78-21.44L380.78-21.44Q381.17-21.97 381.74-22.31 382.3-22.66 382.69-23.19L382.69-23.19Q383.18-23.19 383.42-23.41 383.66-23.63 384.05-23.73L384.05-23.73Q386.4-25.78 388.84-27.59 391.28-29.39 393.53-31.45L393.53-31.45Q393.72-32.13 394.19-32.79 394.65-33.45 395.09-34.13 395.53-34.81 395.87-35.5 396.21-36.18 396.21-36.96ZM430.49-31.05L430.49-31.05 430.49-30.86Q430.15-30.76 430.15-30.37L430.15-30.37Q429.61-30.13 429.02-30 428.44-29.88 427.9-29.64L427.9-29.64Q427.36-29.69 426.8-29.71 426.24-29.74 425.7-29.74L425.7-29.74Q424.24-29.74 422.77-29.64 421.31-29.54 419.84-29.64L419.84-29.64Q419.16-29.25 418.35-29.03 417.55-28.81 416.82-28.81L416.82-28.81Q416.23-28.81 415.79-28.96L415.79-28.96Q414.62-28.37 413.23-27.98 411.84-27.59 410.42-27.22 409-26.86 407.71-26.39 406.42-25.93 405.44-25.1L405.44-25.1Q405.34-24.41 405.29-23.75 405.24-23.1 405.24-22.46L405.24-22.46Q405.24-21.78 405.32-21.19 405.39-20.61 405.63-20.02L405.63-20.02Q405.88-19.92 406.2-19.87 406.51-19.82 406.76-19.82L406.76-19.82Q407-19.82 407.25-19.9 407.49-19.97 407.59-20.21L407.59-20.21Q408.32-20.31 409.05-20.29 409.78-20.26 410.52-20.26L410.52-20.26Q411.25-20.26 411.96-20.31 412.67-20.36 413.35-20.56L413.35-20.56Q414.13-20.75 414.89-20.8 415.64-20.85 416.38-20.9 417.11-20.95 417.89-21.07 418.67-21.19 419.5-21.58L419.5-21.58Q420.14-21.34 420.8-21.34 421.45-21.34 422.09-21.24L422.09-21.24Q422.43-21 422.65-20.7 422.87-20.41 422.87-20.02L422.87-20.02Q422.87-19.34 422.38-18.65 421.89-17.97 421.6-17.38L421.6-17.38 421.06-17.38Q419.89-17.38 418.79-17.07 417.69-16.75 416.6-16.33 415.5-15.92 414.4-15.6 413.3-15.28 412.13-15.28L412.13-15.28Q411.93-15.28 411.91-15.06 411.88-14.84 411.79-14.75L411.79-14.75Q411.54-14.79 411.05-14.79L411.05-14.79Q409.93-14.79 408.91-14.55 407.88-14.31 406.81-14.31L406.81-14.31Q406.51-14.31 406.22-14.33 405.93-14.36 405.63-14.4L405.63-14.4Q405.39-14.01 405-13.89 404.61-13.77 404.27-13.48L404.27-13.48Q404.12-13.04 404.1-12.4 404.07-11.77 404.05-11.11 404.02-10.45 403.93-9.86 403.83-9.28 403.53-8.94L403.53-8.94Q403.58-8.69 403.93-8.76 404.27-8.84 404.27-8.45L404.27-8.45Q404.27-8.01 404.17-7.52 404.07-7.03 404.07-6.54L404.07-6.54Q404.07-5.62 404.29-4.52 404.51-3.42 404.97-2.49 405.44-1.56 406.22-0.95 407-0.34 408.17-0.34L408.17-0.34Q408.95-0.34 409.64-0.63 410.32-0.93 410.76-1.61L410.76-1.61 411.01-1.66Q411.2-1.66 411.37-1.61 411.54-1.56 411.74-1.56L411.74-1.56Q412.03-1.56 412.49-1.93 412.96-2.29 413.52-2.78 414.08-3.27 414.67-3.74 415.25-4.2 415.79-4.39L415.79-4.39Q416.13-5.08 416.45-5.76 416.77-6.45 417.4-6.84L417.4-6.84 417.4-8.25Q417.89-8.79 418.45-9.23 419.01-9.67 419.31-10.35L419.31-10.35Q419.55-10.25 419.77-10.21 419.99-10.16 420.23-10.16L420.23-10.16Q420.48-10.16 420.75-10.21 421.01-10.25 421.26-10.35L421.26-10.35Q421.65-9.81 421.87-9.16 422.09-8.5 422.43-7.91L422.43-7.91Q421.99-7.03 421.41-5.81 420.82-4.59 420.14-3.37 419.45-2.15 418.7-1.05 417.94 0.05 417.21 0.63L417.21 0.63Q417.06 0.78 416.57 0.98L416.57 0.98Q416.03 1.37 415.6 1.73 415.16 2.1 414.76 2.59L414.76 2.59Q413.35 3.03 412.05 3.76 410.76 4.49 409.49 5.18L409.49 5.18Q408.91 5.03 408.22 5.03L408.22 5.03Q407.64 5.03 407.05 5.1 406.46 5.18 405.78 5.18L405.78 5.18Q405.59 4.93 405.22 4.86 404.85 4.79 404.95 4.35L404.95 4.35Q403.29 4.25 402.26 3.44 401.24 2.64 400.53 1.46 399.82 0.29 399.38-1.07 398.94-2.44 398.46-3.71L398.46-3.71 398.46-3.86Q398.46-4.1 398.65-4.15 398.85-4.2 398.85-4.44L398.85-4.44Q398.85-4.54 398.8-4.59L398.8-4.59Q398.65-5.13 398.55-5.52 398.46-5.91 398.46-6.45L398.46-6.45Q398.46-7.23 398.55-7.98 398.65-8.74 398.65-9.52L398.65-9.52Q398.65-10.3 398.46-10.89L398.46-10.89Q398.65-11.13 398.77-11.55 398.9-11.96 398.94-12.4 398.99-12.84 399.02-13.28 399.04-13.72 399.14-14.06L399.14-14.06Q398.94-14.6 398.8-15.01 398.65-15.43 398.65-16.02L398.65-16.02 398.65-16.36Q399.14-17.19 399.48-18.07 399.82-18.95 400.21-19.87L400.21-19.87 400.21-20.02Q400.21-21.44 400.12-22.85 400.02-24.27 400.02-25.68L400.02-25.68 400.02-26.61Q400.02-27.1 400.07-27.54L400.07-27.54Q400.46-27.73 400.65-28.08 400.85-28.42 401.24-28.61L401.24-28.61 402.85-28.61 403.14-29.1Q403.29-29.35 403.34-29.64L403.34-29.64Q403.88-29.79 404.39-30.05 404.9-30.32 405.34-30.62L405.34-30.62Q406.02-31.01 406.59-31.32 407.15-31.64 407.71-31.86 408.27-32.08 408.91-32.23 409.54-32.37 410.37-32.47L410.37-32.47Q410.76-32.47 410.88-32.62 411.01-32.76 411.25-32.96L411.25-32.96Q411.84-32.86 412.42-32.79 413.01-32.71 413.59-32.71L413.59-32.71Q414.76-32.71 415.79-33.15L415.79-33.15Q417.26-33.15 418.7-33.2 420.14-33.25 421.6-33.25L421.6-33.25Q422.87-33.25 424.14-33.15 425.41-33.06 426.63-32.81L426.63-32.81Q427.07-32.96 427.61-32.96L427.61-32.96Q428.19-32.96 428.8-32.84 429.41-32.71 430-32.81L430-32.81Q430.05-32.28 430.27-31.91 430.49-31.54 430.49-31.05ZM464.47-3.56L464.47-3.56Q464.32-2.88 463.86-2.47 463.4-2.05 462.76-1.81 462.13-1.56 461.47-1.49 460.81-1.42 460.27-1.42L460.27-1.42Q460.03-1.42 459.81-1.44 459.59-1.46 459.34-1.46L459.34-1.46Q459.1-1.46 459.1-1.22 459.1-0.98 458.85-0.88L458.85-0.88Q458.61-0.98 458.37-1.03 458.12-1.07 457.88-1.07L457.88-1.07Q457.54-1.07 457.22-1.03 456.9-0.98 456.61-0.98L456.61-0.98Q456.22-0.98 456.05-1.07 455.88-1.17 455.75-1.29 455.63-1.42 455.51-1.56 455.39-1.71 455.14-1.81L455.14-1.81Q454.8-1.95 454.58-1.86 454.36-1.76 453.92-2.15L453.92-2.15Q453.34-2.64 452.92-3.34 452.51-4.05 452.12-4.83 451.73-5.62 451.29-6.4 450.85-7.18 450.26-7.76L450.26-7.76 449.87-7.76Q448.99-7.76 448.65-7.03L448.65-7.03Q448.41-7.18 448.16-7.4 447.92-7.62 447.62-7.76L447.62-7.76Q446.5-7.42 445.28-7.18 444.06-6.93 442.84-6.93L442.84-6.93 442.16-6.93Q441.86-6.93 441.52-7.03L441.52-7.03Q441.03-6.84 440.64-6.57 440.25-6.3 439.76-6.3L439.76-6.3Q439.47-6.3 439.08-6.49L439.08-6.49Q438.79-6.49 438.81-6.25 438.83-6.01 438.49-6.01L438.49-6.01 438.05-6.01Q437.37-6.01 436.71-5.96 436.05-5.91 435.37-5.91L435.37-5.91Q434.44-5.91 433.46-6.15L433.46-6.15Q433.22-6.01 432.93-6.01L432.93-6.01Q432.73-5.91 432.63-5.69 432.54-5.47 432.44-5.3 432.34-5.13 432.17-5 432-4.88 431.71-4.93L431.71-4.93Q431.61-4.35 431.22-4 430.83-3.66 430.83-2.98L430.83-2.98Q430.29-2.69 429.95-2.25 429.61-1.81 429.26-1.32 428.92-0.83 428.56-0.39 428.19 0.05 427.65 0.29L427.65 0.29Q427.41 0.59 427.51 1.22L427.51 1.22Q426.97 1.66 426.19 2 425.41 2.34 424.72 2.34L424.72 2.34Q423.31 2.34 422.77 0.83L422.77 0.83Q422.77 0.34 422.84-0.22 422.92-0.78 423.06-1.29 423.21-1.81 423.5-2.22 423.8-2.64 424.33-2.83L424.33-2.83Q424.33-3.27 424.04-3.44 423.75-3.61 423.8-4.05L423.8-4.05Q425.11-4.69 426.09-5.71 427.07-6.74 427.87-7.89 428.68-9.03 429.51-10.21 430.34-11.38 431.36-12.3L431.36-12.3 431.36-13.33Q432.83-14.89 433.27-16.85L433.27-16.85Q433.81-16.94 433.98-17.33 434.15-17.72 434.15-18.26L434.15-18.26Q434.39-18.26 434.46-18.48 434.54-18.7 434.88-18.6L434.88-18.6Q435.32-19.78 435.86-20.75 436.39-21.73 436.93-22.73 437.47-23.73 437.88-24.8 438.3-25.88 438.49-27.2L438.49-27.2Q439.18-27.25 439.25-27.86 439.32-28.47 439.42-28.96L439.42-28.96Q440.15-29.64 440.52-30.57 440.89-31.49 441.18-32.5 441.47-33.5 441.84-34.5 442.2-35.5 442.89-36.28L442.89-36.28 442.89-36.43Q442.89-36.67 442.69-36.74 442.5-36.82 442.5-37.06L442.5-37.06Q442.55-37.11 442.55-37.16L442.55-37.16Q443.13-37.4 443.42-37.96 443.72-38.53 444.3-38.77L444.3-38.77Q445.33-37.94 446.11-37.77 446.89-37.6 448.16-37.5L448.16-37.5Q448.8-36.82 448.87-35.86 448.94-34.91 449.19-33.98L449.19-33.98Q449.58-32.42 450.04-30.93 450.5-29.44 450.75-27.88L450.75-27.88Q450.9-26.95 451.29-26.12 451.68-25.29 451.82-24.41L451.82-24.41Q451.92-23.73 451.82-22.88 451.73-22.02 452.02-21.39L452.02-21.39 452.36-20.61Q452.6-20.07 452.78-19.48 452.95-18.9 453.09-18.31L453.09-18.31Q453.48-16.85 453.8-15.16 454.12-13.48 454.8-12.11L454.8-12.11Q455.05-11.62 455.56-11.43 456.07-11.23 456.71-11.16 457.34-11.08 457.95-11.11 458.56-11.13 459-11.13L459-11.13 459.49-11.13Q459.78-11.13 460.07-11.04L460.07-11.04Q460.27-10.64 460.27-10.35L460.27-10.35Q460.27-9.77 459.88-9.42 459.49-9.08 459.49-8.64L459.49-8.64Q459.49-8.4 459.68-8.11L459.68-8.11Q459.49-8.15 459.1-8.15L459.1-8.15Q457.98-8.15 456.9-7.76L456.9-7.76Q457.29-6.93 457.95-6.37 458.61-5.81 459.34-5.32L459.34-5.32Q459.83-5.71 460.37-5.71L460.37-5.71Q460.95-5.71 461.47-5.44 461.98-5.18 462.57-5.18L462.57-5.18Q463-5.18 463.2-5.32L463.2-5.32Q463.59-4.88 463.83-4.42 464.08-3.96 464.47-3.56ZM449.19-11.38L449.19-11.38Q449.09-12.21 448.87-12.57 448.65-12.94 448.5-13.48L448.5-13.48Q448.31-14.16 448.23-14.94 448.16-15.72 448.01-16.46L448.01-16.46Q447.67-18.12 447.26-19.78 446.84-21.44 446.21-23L446.21-23Q446.4-23.29 446.4-23.54L446.4-23.54 446.4-23.68Q445.96-24.17 445.77-24.88 445.57-25.59 445.4-26.29 445.23-27 444.96-27.61 444.69-28.22 444.11-28.61L444.11-28.61Q443.96-28.32 443.96-27.93L443.96-27.93Q443.96-27.59 444.03-27.29 444.11-27 444.11-26.66L444.11-26.66Q443.62-26.42 443.4-25.9 443.18-25.39 442.69-25.1L442.69-25.1Q442.3-23.54 441.57-22.14 440.84-20.75 440.03-19.38 439.23-18.02 438.49-16.63 437.76-15.23 437.32-13.72L437.32-13.72Q436.69-13.28 436.47-12.6 436.25-11.91 436.25-11.23L436.25-11.23Q436.69-10.99 437.25-10.96 437.81-10.94 438.35-10.94 438.88-10.94 439.37-10.84 439.86-10.74 440.25-10.35L440.25-10.35Q440.89-10.55 441.64-10.62 442.4-10.69 442.89-11.04L442.89-11.04Q443.86-10.69 444.99-10.69L444.99-10.69Q445.57-10.69 446.13-10.79 446.7-10.89 447.23-11.04L447.23-11.04Q447.67-10.94 447.92-10.72 448.16-10.5 448.65-10.55L448.65-10.55Q448.89-10.74 448.94-10.96 448.99-11.18 449.19-11.38ZM496.89-24.07L496.89-24.07Q496.89-23.58 496.55-23.44 496.21-23.29 496.21-22.85L496.21-22.85Q496.21-22.71 496.3-22.61 496.4-22.51 496.4-22.31L496.4-22.31 496.4-22.12Q495.81-19.29 494.72-17.19 493.62-15.09 492.15-13.33 490.69-11.57 488.86-10.01 487.03-8.45 484.93-6.74L484.93-6.74Q484.34-6.25 483.73-5.76 483.12-5.27 482.58-4.74L482.58-4.74 481.51-3.71Q481.46-3.66 480.97-3.49 480.48-3.32 480.38-3.27L480.38-3.27Q479.7-2.98 478.94-2.59 478.19-2.2 477.65-1.61L477.65-1.61Q476.67-1.61 475.99-1.32 475.31-1.03 474.48-0.54L474.48-0.54Q474.23-0.54 474.06-0.63 473.89-0.73 473.7-0.83 473.5-0.93 473.28-0.95 473.06-0.98 472.72-0.88L472.72-0.88Q472.13-1.86 471.45-2.54 470.77-3.22 469.59-3.37L469.59-3.37Q469.45-4.2 468.91-4.66 468.37-5.13 467.84-5.66L467.84-5.66Q467.74-5.96 467.69-6.35 467.64-6.74 467.49-7.08 467.35-7.42 467.1-7.67 466.86-7.91 466.42-7.91L466.42-7.91Q466.37-8.2 466.66-8.2 466.96-8.2 466.96-8.45L466.96-8.45Q466.96-8.74 466.86-9.03 466.76-9.33 466.76-9.67L466.76-9.67Q466.76-9.91 466.81-10.11 466.86-10.3 466.96-10.55L466.96-10.55Q466.81-11.87 466.81-13.23L466.81-13.23Q466.81-15.87 467.18-18.43 467.54-21 467.54-23.63L467.54-23.63Q467.54-24.8 467.42-25.98 467.3-27.15 466.96-28.27L466.96-28.27Q465.83-28.03 464.71-27.71 463.59-27.39 462.61-26.86L462.61-26.86Q462.07-27.2 461.46-27.27 460.85-27.34 460.27-27.54L460.27-27.54Q459.93-28.22 459.93-28.96L459.93-28.96Q459.93-29.64 460.17-30.27L460.17-30.27 460.66-31.54Q461.83-31.79 462.98-32.28 464.13-32.76 465.3-33.15L465.3-33.15Q465.69-33.25 466.3-33.4 466.91-33.54 467.15-33.64L467.15-33.64Q467.49-33.79 467.62-34.2 467.74-34.62 467.98-34.91L467.98-34.91 468.81-34.91Q469.11-34.91 469.45-34.89 469.79-34.86 470.08-34.72L470.08-34.72Q471.84-35.16 473.6-35.28 475.36-35.4 477.21-35.64L477.21-35.64Q477.41-35.64 477.8-35.69L477.8-35.69 478.63-35.84Q479.07-35.94 479.43-36.01 479.8-36.08 479.95-36.08L479.95-36.08Q480.09-36.08 480.09-35.94L480.09-35.94 480.92-35.94Q483.02-35.94 485.02-35.4L485.02-35.4 489.03-34.33Q489.86-33.64 490.69-33.01 491.52-32.37 492.54-31.88L492.54-31.88Q492.79-31.1 493.3-30.64 493.81-30.18 494.45-29.64L494.45-29.64Q494.69-29 495.11-28.3 495.52-27.59 495.91-26.86 496.3-26.12 496.6-25.42 496.89-24.71 496.89-24.07ZM492.35-23.34L492.35-23.34Q491.81-24.46 491.32-25.68 490.83-26.9 490.1-27.88L490.1-27.88Q489.22-28.13 488.32-28.49 487.42-28.86 487.07-29.79L487.07-29.79Q486.98-29.74 486.73-29.74L486.73-29.74Q486.29-29.74 485.95-30.08 485.61-30.42 485.17-30.52L485.17-30.52Q484.78-30.57 484.12-30.66 483.46-30.76 482.73-30.81 482-30.86 481.29-30.91 480.58-30.96 480.19-30.96L480.19-30.96Q479.8-30.96 479.38-30.93 478.97-30.91 478.53-30.86L478.53-30.86Q478.14-30.86 478.04-30.74 477.94-30.62 477.65-30.52L477.65-30.52Q477.41-30.62 477.11-30.62L477.11-30.62 476.53-30.62Q475.5-30.62 474.5-30.3 473.5-29.98 472.52-29.44L472.52-29.44 472.52-29.25Q472.52-28.86 472.87-28.81 473.21-28.76 473.26-28.42L473.26-28.42Q473.01-28.42 472.87-28.39 472.72-28.37 472.72-28.03L472.72-28.03Q472.72-27.54 472.84-26.95 472.96-26.37 472.96-25.78L472.96-25.78Q472.96-25.34 472.87-24.76 472.77-24.17 472.38-23.83L472.38-23.83Q472.87-23.39 472.87-22.66L472.87-22.66Q472.87-22.17 472.67-21.63 472.47-21.09 472.18-20.7L472.18-20.7Q472.08-18.65 471.79-16.55 471.5-14.45 471.5-12.4L471.5-12.4Q471.5-11.38 471.62-10.4 471.74-9.42 472.04-8.45L472.04-8.45Q472.57-7.91 473.18-7.62 473.79-7.32 474.48-7.03L474.48-7.03 474.48-6.88Q474.48-6.74 474.28-6.59 474.09-6.45 474.09-6.2L474.09-6.2Q474.09-6.01 474.28-6.01L474.28-6.01Q476.33-6.59 478.14-7.42 479.95-8.25 481.51-9.67L481.51-9.67Q481.65-9.81 481.8-9.81L481.8-9.81Q481.9-9.81 482.07-9.77 482.24-9.72 482.39-9.67L482.39-9.67 482.34-9.86Q482.34-10.16 482.51-10.4 482.68-10.64 482.92-10.84L482.92-10.84 483.41-11.28Q483.66-11.52 483.8-11.77L483.8-11.77Q484.19-11.87 484.36-12.16 484.54-12.45 484.97-12.45L484.97-12.45Q485.07-12.99 485.51-13.26 485.95-13.53 486.05-14.06L486.05-14.06Q487.03-14.6 487.78-15.38 488.54-16.16 489.2-17.04 489.86-17.92 490.44-18.87 491.03-19.82 491.66-20.7L491.66-20.7 491.66-20.9Q491.66-21.68 491.93-22.17 492.2-22.66 492.35-23.34ZM529.94-31.05L529.94-31.05 529.94-30.86Q529.6-30.76 529.6-30.37L529.6-30.37Q529.06-30.13 528.48-30 527.89-29.88 527.36-29.64L527.36-29.64Q526.82-29.69 526.26-29.71 525.69-29.74 525.16-29.74L525.16-29.74Q523.69-29.74 522.23-29.64 520.76-29.54 519.3-29.64L519.3-29.64Q518.61-29.25 517.81-29.03 517-28.81 516.27-28.81L516.27-28.81Q515.69-28.81 515.25-28.96L515.25-28.96Q514.07-28.37 512.68-27.98 511.29-27.59 509.87-27.22 508.46-26.86 507.16-26.39 505.87-25.93 504.89-25.1L504.89-25.1Q504.8-24.41 504.75-23.75 504.7-23.1 504.7-22.46L504.7-22.46Q504.7-21.78 504.77-21.19 504.85-20.61 505.09-20.02L505.09-20.02Q505.33-19.92 505.65-19.87 505.97-19.82 506.21-19.82L506.21-19.82Q506.46-19.82 506.7-19.9 506.94-19.97 507.04-20.21L507.04-20.21Q507.78-20.31 508.51-20.29 509.24-20.26 509.97-20.26L509.97-20.26Q510.7-20.26 511.41-20.31 512.12-20.36 512.8-20.56L512.8-20.56Q513.59-20.75 514.34-20.8 515.1-20.85 515.83-20.9 516.56-20.95 517.35-21.07 518.13-21.19 518.96-21.58L518.96-21.58Q519.59-21.34 520.25-21.34 520.91-21.34 521.54-21.24L521.54-21.24Q521.89-21 522.11-20.7 522.33-20.41 522.33-20.02L522.33-20.02Q522.33-19.34 521.84-18.65 521.35-17.97 521.06-17.38L521.06-17.38 520.52-17.38Q519.35-17.38 518.25-17.07 517.15-16.75 516.05-16.33 514.95-15.92 513.85-15.6 512.76-15.28 511.58-15.28L511.58-15.28Q511.39-15.28 511.36-15.06 511.34-14.84 511.24-14.75L511.24-14.75Q511-14.79 510.51-14.79L510.51-14.79Q509.39-14.79 508.36-14.55 507.34-14.31 506.26-14.31L506.26-14.31Q505.97-14.31 505.68-14.33 505.38-14.36 505.09-14.4L505.09-14.4Q504.85-14.01 504.45-13.89 504.06-13.77 503.72-13.48L503.72-13.48Q503.58-13.04 503.55-12.4 503.53-11.77 503.5-11.11 503.48-10.45 503.38-9.86 503.28-9.28 502.99-8.94L502.99-8.94Q503.04-8.69 503.38-8.76 503.72-8.84 503.72-8.45L503.72-8.45Q503.72-8.01 503.62-7.52 503.53-7.03 503.53-6.54L503.53-6.54Q503.53-5.62 503.75-4.52 503.97-3.42 504.43-2.49 504.89-1.56 505.68-0.95 506.46-0.34 507.63-0.34L507.63-0.34Q508.41-0.34 509.09-0.63 509.78-0.93 510.22-1.61L510.22-1.61 510.46-1.66Q510.66-1.66 510.83-1.61 511-1.56 511.19-1.56L511.19-1.56Q511.49-1.56 511.95-1.93 512.41-2.29 512.98-2.78 513.54-3.27 514.12-3.74 514.71-4.2 515.25-4.39L515.25-4.39Q515.59-5.08 515.9-5.76 516.22-6.45 516.86-6.84L516.86-6.84 516.86-8.25Q517.35-8.79 517.91-9.23 518.47-9.67 518.76-10.35L518.76-10.35Q519.01-10.25 519.23-10.21 519.44-10.16 519.69-10.16L519.69-10.16Q519.93-10.16 520.2-10.21 520.47-10.25 520.71-10.35L520.71-10.35Q521.11-9.81 521.32-9.16 521.54-8.5 521.89-7.91L521.89-7.91Q521.45-7.03 520.86-5.81 520.28-4.59 519.59-3.37 518.91-2.15 518.15-1.05 517.39 0.05 516.66 0.63L516.66 0.63Q516.52 0.78 516.03 0.98L516.03 0.98Q515.49 1.37 515.05 1.73 514.61 2.1 514.22 2.59L514.22 2.59Q512.8 3.03 511.51 3.76 510.22 4.49 508.95 5.18L508.95 5.18Q508.36 5.03 507.68 5.03L507.68 5.03Q507.09 5.03 506.51 5.1 505.92 5.18 505.24 5.18L505.24 5.18Q505.04 4.93 504.67 4.86 504.31 4.79 504.41 4.35L504.41 4.35Q502.75 4.25 501.72 3.44 500.69 2.64 499.99 1.46 499.28 0.29 498.84-1.07 498.4-2.44 497.91-3.71L497.91-3.71 497.91-3.86Q497.91-4.1 498.11-4.15 498.3-4.2 498.3-4.44L498.3-4.44Q498.3-4.54 498.25-4.59L498.25-4.59Q498.11-5.13 498.01-5.52 497.91-5.91 497.91-6.45L497.91-6.45Q497.91-7.23 498.01-7.98 498.11-8.74 498.11-9.52L498.11-9.52Q498.11-10.3 497.91-10.89L497.91-10.89Q498.11-11.13 498.23-11.55 498.35-11.96 498.4-12.4 498.45-12.84 498.47-13.28 498.5-13.72 498.6-14.06L498.6-14.06Q498.4-14.6 498.25-15.01 498.11-15.43 498.11-16.02L498.11-16.02 498.11-16.36Q498.6-17.19 498.94-18.07 499.28-18.95 499.67-19.87L499.67-19.87 499.67-20.02Q499.67-21.44 499.57-22.85 499.47-24.27 499.47-25.68L499.47-25.68 499.47-26.61Q499.47-27.1 499.52-27.54L499.52-27.54Q499.91-27.73 500.11-28.08 500.3-28.42 500.69-28.61L500.69-28.61 502.31-28.61 502.6-29.1Q502.75-29.35 502.79-29.64L502.79-29.64Q503.33-29.79 503.84-30.05 504.36-30.32 504.8-30.62L504.8-30.62Q505.48-31.01 506.04-31.32 506.6-31.64 507.16-31.86 507.73-32.08 508.36-32.23 509-32.37 509.83-32.47L509.83-32.47Q510.22-32.47 510.34-32.62 510.46-32.76 510.7-32.96L510.7-32.96Q511.29-32.86 511.88-32.79 512.46-32.71 513.05-32.71L513.05-32.71Q514.22-32.71 515.25-33.15L515.25-33.15Q516.71-33.15 518.15-33.2 519.59-33.25 521.06-33.25L521.06-33.25Q522.33-33.25 523.6-33.15 524.86-33.06 526.09-32.81L526.09-32.81Q526.53-32.96 527.06-32.96L527.06-32.96Q527.65-32.96 528.26-32.84 528.87-32.71 529.45-32.81L529.45-32.81Q529.5-32.28 529.72-31.91 529.94-31.54 529.94-31.05ZM590.05-8.5L590.05-8.5Q589.95-7.76 589.54-7.37 589.12-6.98 588.58-6.64L588.58-6.64Q588.34-6.69 588.12-6.71 587.9-6.74 587.66-6.74L587.66-6.74Q586.14-6.79 584.8-6.35 583.46-5.91 582.04-5.71L582.04-5.71Q581.55-5.62 581.14-5.64 580.72-5.66 580.28-5.57L580.28-5.57Q578.72-5.32 576.96-5.18 575.2-5.03 573.45-4.81 571.69-4.59 570-4.27 568.32-3.96 566.85-3.37L566.85-3.37Q566.71-3.47 566.56-3.59 566.42-3.71 566.22-3.71L566.22-3.71Q565.73-3.71 565.29-3.56 564.85-3.42 564.41-3.47L564.41-3.47Q563.92-3.17 563.36-3.05 562.8-2.93 562.24-2.86 561.68-2.78 561.14-2.64 560.6-2.49 560.12-2.1L560.12-2.1Q559.73-2.29 559.16-2.32 558.6-2.34 558.41-2.69L558.41-2.69Q557.28-2.15 556.04-2 554.79-1.86 553.52-1.9L553.52-1.9Q552.69-1.95 551.62-2.15 550.55-2.34 549.47-2.71 548.4-3.08 547.47-3.59 546.54-4.1 546.05-4.83L546.05-4.83Q545.71-5.32 545.57-5.91 545.42-6.49 544.88-6.79L544.88-6.79Q545.03-7.91 545.22-8.98 545.42-10.06 545.61-11.18L545.61-11.18Q546.59-12.01 547.47-12.94 548.35-13.87 549.13-14.89L549.13-14.89Q550.06-15.33 550.86-15.97 551.67-16.6 552.47-17.26 553.28-17.92 554.09-18.55 554.89-19.19 555.82-19.68L555.82-19.68Q555.97-20.02 556.23-20.24 556.5-20.46 556.8-20.68 557.09-20.9 557.33-21.17 557.58-21.44 557.67-21.83L557.67-21.83Q559.38-22.85 560.65-24.41 561.92-25.98 562.31-27.93L562.31-27.93Q561.48-28.61 560.43-28.83 559.38-29.05 558.26-29.15L558.26-29.15Q557.28-29.2 556.23-29.15 555.18-29.1 554.11-29.2L554.11-29.2Q553.04-28.86 551.89-28.76 550.74-28.66 549.62-28.59 548.5-28.52 547.4-28.3 546.3-28.08 545.27-27.49L545.27-27.49Q545.08-27.49 544.91-27.54 544.74-27.59 544.54-27.59L544.54-27.59Q542.98-27.64 541.61-26.98 540.24-26.32 538.92-25.68L538.92-25.68Q538.83-25.49 538.83-25.39L538.83-25.39Q538.83-25.1 538.95-24.83 539.07-24.56 539.07-24.27L539.07-24.27Q539.02-24.22 539.02-24.17 539.02-24.12 538.97-24.07L538.97-24.07Q538.92-23.83 538.85-23.63 538.78-23.44 538.68-23.19L538.68-23.19Q538.14-21.63 538.09-20.12L538.09-20.12Q538.05-18.85 538.09-17.63 538.14-16.41 538.09-15.14L538.09-15.14Q538-13.57 537.61-12.21L537.61-12.21Q537.85-11.04 538.05-9.74 538.24-8.45 538.53-7.18 538.83-5.91 539.24-4.71 539.66-3.52 540.34-2.44L540.34-2.44Q540.29-2.34 540.39-2.29 540.49-2.25 540.59-2.25L540.59-2.25 540.98-2.25Q541.22-2.25 541.17-2.05L541.17-2.05Q541.27-1.9 541.32-1.78 541.37-1.66 541.51-1.56L541.51-1.56Q541.61-1.42 541.51-1.17L541.51-1.17Q541.46-0.2 541.02 0.63 540.59 1.46 540.49 2.44L540.49 2.44Q539.9 2.59 539.41 2.59L539.41 2.59Q538.58 2.54 537.95 2.12 537.31 1.71 536.78 1.12 536.24 0.54 535.75-0.07 535.26-0.68 534.68-1.12L534.68-1.12Q534.34-2.49 534.02-4.15 533.7-5.81 532.97-6.98L532.97-6.98Q533.16-7.42 533.16-8.06L533.16-8.06Q533.21-9.03 532.99-9.99 532.77-10.94 532.87-11.91L532.87-11.91Q532.87-12.45 532.99-12.99 533.11-13.53 533.16-14.06L533.16-14.06Q533.21-14.89 532.99-15.67 532.77-16.46 532.82-17.29L532.82-17.29Q532.87-17.68 532.99-18.04 533.11-18.41 533.36-18.7L533.36-18.7Q533.11-19.29 533.21-19.82L533.21-19.82Q533.26-20.65 533.41-21.39 533.55-22.12 533.6-22.85L533.6-22.85Q533.6-23.24 533.55-23.61 533.5-23.97 533.41-24.32L533.41-24.32 532.97-24.46Q532.67-24.46 532.41-24.32 532.14-24.17 531.94-23.97 531.75-23.78 531.6-23.66 531.45-23.54 531.31-23.54L531.31-23.54Q531.21-23.54 531.09-23.56 530.97-23.58 530.87-23.58L530.87-23.58Q530.77-23.58 530.5-23.39 530.23-23.19 529.87-22.97 529.5-22.75 529.16-22.53 528.82-22.31 528.62-22.27L528.62-22.27Q528.09-22.36 527.77-22.63 527.45-22.9 527.18-23.17 526.91-23.44 526.62-23.66 526.33-23.88 525.89-23.83L525.89-23.83Q525.74-24.12 525.72-24.46 525.69-24.8 525.74-25.15L525.74-25.15 525.74-25.93Q526.08-26.56 526.64-26.98 527.21-27.39 527.84-27.69L527.84-27.69 529.11-28.27Q529.75-28.56 530.28-29L530.28-29 530.72-29Q531.6-28.96 532.26-29.35 532.92-29.74 533.5-30.25 534.09-30.76 534.7-31.3 535.31-31.84 536.04-32.13L536.04-32.13Q536.58-31.88 537.17-31.71 537.75-31.54 538.39-31.49L538.39-31.49Q539.02-31.49 539.71-31.69 540.39-31.88 540.78-32.42L540.78-32.42Q541.02-32.32 541.2-32.3 541.37-32.28 541.61-32.28L541.61-32.28Q542.34-32.23 543.08-32.5 543.81-32.76 544.49-33.15L544.49-33.15Q545.47-33.11 546.42-33.28 547.37-33.45 548.32-33.64 549.28-33.84 550.23-34.01 551.18-34.18 552.16-34.13L552.16-34.13Q553.77-34.08 555.33-34.42 556.89-34.77 558.5-34.67L558.5-34.67Q559.63-34.62 560.73-34.5 561.83-34.38 562.95-34.42L562.95-34.42Q563.58-34.13 564.1-33.91 564.61-33.69 565.39-33.79L565.39-33.79Q566.95-32.47 568.22-30.71L568.22-30.71 568.22-29.88Q568.17-28.76 567.83-27.69 567.49-26.61 567.03-25.56 566.56-24.51 566.02-23.51 565.49-22.51 565-21.53L565-21.53Q561.83-18.65 558.65-15.82 555.48-12.99 552.11-10.35L552.11-10.35Q552.01-9.86 551.84-9.47 551.67-9.08 551.62-8.64L551.62-8.64Q551.62-8.4 551.67-8.25L551.67-8.25Q552.01-8.15 552.28-7.89 552.55-7.62 552.45-7.18L552.45-7.18 552.89-7.18Q553.13-7.18 553.13-6.98L553.13-6.98 553.92-6.93Q555.77-6.84 557.63-7.03 559.48-7.23 561.36-7.47 563.24-7.71 565.1-7.93 566.95-8.15 568.81-8.2L568.81-8.2Q569.25-8.35 569.74-8.45 570.22-8.54 570.61-8.84L570.61-8.84 570.76-8.84Q571.1-8.84 571.27-8.64 571.44-8.45 571.79-8.4L571.79-8.4Q572.03-8.4 572.3-8.5 572.57-8.59 572.86-8.64L572.86-8.64Q573.54-8.84 574.3-8.89 575.06-8.94 575.79-9.03L575.79-9.03Q578.62-9.28 581.41-9.35 584.19-9.42 586.97-10.06L586.97-10.06Q587.22-9.72 587.66-9.59 588.09-9.47 588.58-9.35 589.07-9.23 589.49-9.08 589.9-8.94 590.05-8.5Z" opacity="1" transform="matrix(1,0,0,1,0,0)" fill="#ffffff" class="undefined-text-0" data-fill-palette-color="primary" id="text-0"></path></svg></g></svg></g></svg></g></svg></g><g transform="matrix(1,0,0,1,76.66864990881723,0)"><svg viewBox="0 0 38.66270018236555 60.45366456326802" height="60.45366456326802" width="38.66270018236555"><g><svg xmlns="http://www.w3.org/2000/svg" xmlns:xlink="http://www.w3.org/1999/xlink" version="1.1" x="0" y="0" viewBox="19.472896575927734 2.5331897735595703 61.05510330200195 95.46681213378906" style="enable-background:new 0 0 100 100;" xml:space="preserve" height="60.45366456326802" width="38.66270018236555" class="icon-icon-0" data-fill-palette-color="accent" id="icon-0"><path d="M78.182 19.141C76.375 10.65 74.253-0.72 72.259 3.407c-1.506 3.117-2.51 7.325-4.347 8.797-5.5-1.488-12.081-2.496-17.417-2.496-5.438 0-12.082 1.033-17.604 2.559-1.825-1.452-2.898-5.696-4.428-8.86-1.985-4.109-4.327 7.8-5.969 15.817-2.696 9.17-3.028 33.939-3.021 34.379 0.141 8.707 5.384 15.922 5.384 15.922l10.395 22.473-0.115-0.518c0.222 0.461 0.429 0.811 0.614 1C37.03 94.629 44.892 98 50.777 98c5.732 0 13.489-3.289 14.918-5.354 0.351-0.34 0.739-1.23 1.145-2.486l-0.094 0.832 8.395-21.473c0 0 5.243-7.215 5.384-15.922C80.532 53.133 80.658 28.476 78.182 19.141zM29.283 57.154c-2.943-0.93-5.344-7.184-1.347-5.934 3.996 1.252 11.187 8.252 11.187 8.252S32.224 58.084 29.283 57.154zM70.714 57.148c-2.941 0.93-9.84 2.318-9.84 2.318s7.191-7 11.187-8.252C76.058 49.965 73.657 56.219 70.714 57.148z" fill="#ffffff" data-fill-palette-color="accent"></path></svg></g></svg></g><g></g></svg></g></svg></g></svg></g></svg></g><defs></defs></svg><rect width="320" height="360" fill="none" stroke="none" visibility="hidden"></rect></g></svg></g></svg>